<?xml version="1.0" encoding="UTF-8" standalone="no"?>
<svg
   version="1.2"
   width="125.27128mm"
   height="143.33466mm"
   viewBox="0 0 12527.128 14333.466"
   preserveAspectRatio="xMidYMid"
   fill-rule="evenodd"
   stroke-width="28.222"
   stroke-linejoin="round"
   xml:space="preserve"
   id="svg3528"
   sodipodi:docname="Alien with pointy ears2.svg"
   inkscape:version="1.2.2 (732a01da63, 2022-12-09, custom)"
   xmlns:inkscape="http://www.inkscape.org/namespaces/inkscape"
   xmlns:sodipodi="http://sodipodi.sourceforge.net/DTD/sodipodi-0.dtd"
   xmlns="http://www.w3.org/2000/svg"
   xmlns:svg="http://www.w3.org/2000/svg"
   xmlns:ooo="http://xml.openoffice.org/svg/export"><sodipodi:namedview
   id="namedview3530"
   pagecolor="#ffffff"
   bordercolor="#000000"
   borderopacity="0.25"
   inkscape:showpageshadow="2"
   inkscape:pageopacity="0.0"
   inkscape:pagecheckerboard="0"
   inkscape:deskcolor="#d1d1d1"
   inkscape:document-units="mm"
   showgrid="false"
   inkscape:zoom="0.96102398"
   inkscape:cx="150.36045"
   inkscape:cy="227.88193"
   inkscape:window-width="1920"
   inkscape:window-height="1031"
   inkscape:window-x="0"
   inkscape:window-y="25"
   inkscape:window-maximized="1"
   inkscape:current-layer="layer1" />
 <defs
   class="ClipPathGroup"
   id="defs3440">
  <clipPath
   id="presentation_clip_path"
   clipPathUnits="userSpaceOnUse">
   <rect
   x="0"
   y="0"
   width="2885"
   height="3301"
   id="rect3434" />
  </clipPath>
  <clipPath
   id="presentation_clip_path_shrink"
   clipPathUnits="userSpaceOnUse">
   <rect
   x="2"
   y="3"
   width="2880"
   height="3295"
   id="rect3437" />
  </clipPath>
 </defs>
 <defs
   class="TextShapeIndex"
   id="defs3444">
  <g
   ooo:slide="id1"
   ooo:id-list="id3 id4 id5 id6"
   id="g3442" />
 </defs>
 <defs
   class="EmbeddedBulletChars"
   id="defs3476">
  <g
   id="bullet-char-template-57356"
   transform="matrix(4.8828125e-4,0,0,-4.8828125e-4,0,0)">
   <path
   d="M 580,1141 1163,571 580,0 -4,571 Z"
   id="path3446" />
  </g>
  <g
   id="bullet-char-template-57354"
   transform="matrix(4.8828125e-4,0,0,-4.8828125e-4,0,0)">
   <path
   d="M 8,1128 H 1137 V 0 H 8 Z"
   id="path3449" />
  </g>
  <g
   id="bullet-char-template-10146"
   transform="matrix(4.8828125e-4,0,0,-4.8828125e-4,0,0)">
   <path
   d="M 174,0 602,739 174,1481 1456,739 Z M 1358,739 309,1346 659,739 Z"
   id="path3452" />
  </g>
  <g
   id="bullet-char-template-10132"
   transform="matrix(4.8828125e-4,0,0,-4.8828125e-4,0,0)">
   <path
   d="M 2015,739 1276,0 H 717 l 543,543 H 174 v 393 h 1086 l -543,545 h 557 z"
   id="path3455" />
  </g>
  <g
   id="bullet-char-template-10007"
   transform="matrix(4.8828125e-4,0,0,-4.8828125e-4,0,0)">
   <path
   d="m 0,-2 c -7,16 -16,29 -25,39 l 381,530 c -94,256 -141,385 -141,387 0,25 13,38 40,38 9,0 21,-2 34,-5 21,4 42,12 65,25 l 27,-13 111,-251 280,301 64,-25 24,25 c 21,-10 41,-24 62,-43 C 886,937 835,863 770,784 769,783 710,716 594,584 L 774,223 c 0,-27 -21,-55 -63,-84 l 16,-20 C 717,90 699,76 672,76 641,76 570,178 457,381 L 164,-76 c -22,-34 -53,-51 -92,-51 -42,0 -63,17 -64,51 -7,9 -10,24 -10,44 0,9 1,19 2,30 z"
   id="path3458" />
  </g>
  <g
   id="bullet-char-template-10004"
   transform="matrix(4.8828125e-4,0,0,-4.8828125e-4,0,0)">
   <path
   d="M 285,-33 C 182,-33 111,30 74,156 52,228 41,333 41,471 c 0,78 14,145 41,201 34,71 87,106 158,106 53,0 88,-31 106,-94 l 23,-176 c 8,-64 28,-97 59,-98 l 735,706 c 11,11 33,17 66,17 42,0 63,-15 63,-46 V 965 c 0,-36 -10,-64 -30,-84 L 442,47 C 390,-6 338,-33 285,-33 Z"
   id="path3461" />
  </g>
  <g
   id="bullet-char-template-9679"
   transform="matrix(4.8828125e-4,0,0,-4.8828125e-4,0,0)">
   <path
   d="M 813,0 C 632,0 489,54 383,161 276,268 223,411 223,592 c 0,181 53,324 160,431 106,107 249,161 430,161 179,0 323,-54 432,-161 108,-107 162,-251 162,-431 0,-180 -54,-324 -162,-431 C 1136,54 992,0 813,0 Z"
   id="path3464" />
  </g>
  <g
   id="bullet-char-template-8226"
   transform="matrix(4.8828125e-4,0,0,-4.8828125e-4,0,0)">
   <path
   d="m 346,457 c -73,0 -137,26 -191,78 -54,51 -81,114 -81,188 0,73 27,136 81,188 54,52 118,78 191,78 73,0 134,-26 185,-79 51,-51 77,-114 77,-187 0,-75 -25,-137 -76,-188 -50,-52 -112,-78 -186,-78 z"
   id="path3467" />
  </g>
  <g
   id="bullet-char-template-8211"
   transform="matrix(4.8828125e-4,0,0,-4.8828125e-4,0,0)">
   <path
   d="M -4,459 H 1135 V 606 H -4 Z"
   id="path3470" />
  </g>
  <g
   id="bullet-char-template-61548"
   transform="matrix(4.8828125e-4,0,0,-4.8828125e-4,0,0)">
   <path
   d="m 173,740 c 0,163 58,303 173,419 116,115 255,173 419,173 163,0 302,-58 418,-173 116,-116 174,-256 174,-419 0,-163 -58,-303 -174,-418 C 1067,206 928,148 765,148 601,148 462,206 346,322 231,437 173,577 173,740 Z"
   id="path3473" />
  </g>
 </defs>
 
 <g
   inkscape:groupmode="layer"
   id="layer1"
   inkscape:label="Layer 1"
   style="display:inline"
   transform="translate(9642.1278,11032.466)"><path
     fill="#fff5ce"
     stroke="none"
     d="m -6567.8795,-8010.3234 134.607,1176.725 -386.4522,1476.334 -52.1059,959.617 v 638.2974 l -468.9531,-673.0346 -772.9043,-603.5601 -455.9266,-52.1059 303.9511,1024.7495 673.0346,1328.7005 586.1914,772.9043 303.9511,13.0264 386.4521,1732.52136 -117.2382,1059.48672 199.7393,820.66802 3009.1159,976.9857 2566.21581,-1042.1181 369.08349,-690.40324 -199.7393,-421.18939 69.47454,-803.29936 399.478597,-1293.96331 386.452123,-321.3197 473.2953,-972.6436 503.69044,-1328.7005 82.501,-785.9307 -91.1854,-199.7393 -477.63741,421.1893 -651.3238,594.8758 -82.50102,-716.4562 -95.527487,-920.5376 -212.765773,-864.0896 -143.29124,-820.668 -173.68635,43.4216 -521.05902,664.3503 -955.2749,369.0834 -629.613,204.0815 -838.0367,69.4745 -733.8248,-147.6334 -581.8493,-282.2403 -699.0875,-282.2403 -451.5845,-603.56 -377.7678,-425.5316 z"
     id="path3485"
     style="stroke-width:122.544" /><path
     fill="#729fcf"
     stroke="none"
     d="m -9642.1278,3301 v -881.4582 l 2496.7412,-1128.9613 516.7169,-386.4521 69.4746,-646.98164 277.8981,-243.160888 -34.7373,455.926658 -108.5539,1063.82887 2110.2891,903.169 1055.1446,56.4481 2079.894,-542.7699 877.11602,-690.4032 729.48266,290.9246 894.48472,351.7149 720.7983,338.6884 421.1894,360.3992 343.0305,151.9755 L 2885,3092.5764 V 3301 H -471.48867 Z"
     id="path3492"
     style="stroke-width:122.544" /><path
     fill="#813709"
     stroke="none"
     d="m -6989.0689,-4111.0649 -590.5335,-959.6171 -199.7393,-1528.4398 603.56,-2131.9999 1528.4399,-1663.0473 1932.2606,-521.059 1815.0223,251.846 1610.9409,1141.9874 890.14253,1715.1527 386.45212,1563.1771 -351.71485,1189.7515 -321.31974,790.2729 -134.60692,-134.607 -251.845207,-1693.4418 -82.501013,-473.2953 -134.60692,-1055.1446 -269.21384,117.2383 -251.8452,568.8228 -1393.83296,612.2443 -772.9042,186.7129 -838.0367,-186.7129 -173.6863,52.1059 -534.0855,-243.1608 -929.222,-364.7414 -534.0855,-655.6659 -468.9531,-503.6904 -95.5275,646.9816 169.3442,733.8248 -399.4786,1115.9348 z"
     id="path3499"
     style="stroke-width:122.544" /><path
     fill="#000000"
     stroke="none"
     d="m -3458.8938,-11032.466 c -186.7129,0 -347.3727,8.684 -451.5845,26.053 -173.6864,30.395 -447.2424,95.528 -646.9817,151.976 -82.501,26.053 -199.7393,60.79 -260.5295,73.816 -421.1894,121.581 -877.1161,330.004 -1298.3055,607.903 -369.0835,243.1605 -864.0895,699.0871 -1111.5926,1033.4334 -108.554,147.6334 -264.8717,481.9796 -364.7413,790.2728 -26.053,82.5011 -156.3177,607.9023 -221.4501,898.8269 -65.1324,264.8717 -78.1589,620.9287 -52.1059,1063.8289 26.0529,455.9266 86.8432,768.5621 230.1344,1189.7514 56.4481,165.0021 99.8696,303.9512 95.5275,308.2933 -4.3422,4.3422 -39.0794,-13.0265 -69.4746,-34.7373 -117.2382,-86.8431 -382.1099,-217.1079 -525.4012,-256.1873 -43.4215,-13.0265 -169.3441,-26.053 -273.5559,-30.3951 l -191.055,-8.6843 v 86.8431 c 0,112.8962 26.0529,356.057 52.1059,508.0326 69.4745,390.7943 369.0835,1168.0407 603.56,1576.2036 147.6334,256.1874 564.4807,825.0101 772.9043,1046.4602 78.1588,91.1854 269.2138,225.7923 316.9776,225.7923 13.0264,0 47.7637,-8.6843 73.8167,-17.3686 26.0529,-13.0265 52.1059,-13.0265 56.448,-8.6844 17.3687,17.3687 52.1059,195.3972 95.5275,477.6375 52.1059,360.39917 60.7902,408.16291 125.9226,681.71891 65.1324,264.87168 99.8697,481.97961 82.501,512.37473 -8.6843,13.02647 -73.8167,52.1059 -143.2912,91.185328 -69.4745,34.7372697 -143.2912,82.501015 -160.6599,99.86965 -52.1059,52.105902 -69.4745,165.002032 -60.7902,425.531552 4.3422,125.9226 4.3422,264.87168 0,308.29327 -8.6843,73.81669 -13.0265,82.50101 -78.1589,130.26476 -39.0794,26.05295 -169.3441,91.1853 -290.9246,138.9491 -473.2953,195.3971 -612.2444,260.5295 -772.9042,373.4256 -65.1324,47.7638 -434.2159,243.1609 -872.7739,460.2688 -395.1365,199.7393 -629.613,316.9776 -842.3788,425.5316 v 573.1649 c 73.8167,26.053 156.3177,52.1059 221.4501,73.8167 60.7902,17.3687 204.0814,60.7903 316.9776,99.8697 212.7657,73.8167 360.3991,121.5804 512.3747,165.002 39.0794,8.6843 125.9226,39.0794 204.0814,60.7902 h 1771.6008 c -43.4216,-13.0264 -104.2118,-30.3951 -134.6069,-39.0794 -112.8962,-30.3951 -264.8717,-78.1588 -338.6884,-104.2118 l -138.9491,-47.7637 -39.0794,-173.6864 c -125.9226,-555.7963 -125.9226,-759.8778 -8.6843,-1098.5661 56.448,-156.3177 104.2118,-251.8452 169.3442,-325.6619 52.1059,-65.1324 195.3971,-173.6864 208.4236,-160.6599 4.3421,4.3421 -4.3422,82.501 -17.3687,178.0285 -52.1059,295.2668 -39.0794,620.9287 34.7373,846.7209 34.7373,99.8697 39.0794,73.8167 4.3422,-47.7637 -13.0265,-60.7902 -34.7373,-182.3707 -43.4216,-269.2138 -17.3687,-221.4501 -17.3687,-234.4766 13.0265,-234.4766 26.0529,0 30.3951,-21.7108 39.0794,-221.4501 4.3421,-121.5804 13.0265,-221.4501 17.3686,-225.7923 13.0265,-13.0264 26.053,30.3952 43.4216,208.4237 56.4481,586.1914 208.4236,1003.0386 503.6904,1393.8329 78.1589,104.2118 178.0285,230.1344 256.1874,321.3197 h 208.4236 c -178.0285,-212.7657 -251.8452,-312.6354 -390.7943,-512.3747 -151.9755,-225.7922 -282.2403,-442.9002 -312.6354,-529.7433 -21.7108,-56.4481 -73.8167,-369.0835 -73.8167,-447.2424 0,-13.0265 43.4216,17.3686 104.2118,78.1589 230.1344,221.4501 772.9042,581.8492 1102.9083,733.8248 303.9511,138.9491 660.0081,251.8452 1007.3808,321.3197 590.5336,117.2383 1311.3319,86.8432 1832.391,-73.8167 447.2423,-134.6069 625.2708,-195.3971 803.2993,-273.556 221.4501,-91.1853 269.2139,-104.2118 169.3442,-43.4216 -338.6883,212.7658 -729.4826,395.1365 -1128.9612,521.0591 -629.613,199.7393 -1298.3055,234.4766 -1875.8126,99.8696 -390.7943,-91.1853 -729.4826,-208.4236 -916.1955,-312.6354 -169.3442,-99.8696 -178.0285,-99.8696 -147.6334,-69.4745 34.7373,43.4216 425.5316,299.6089 581.8493,377.7678 117.2383,60.7902 195.3971,95.5275 290.9246,130.2647 h 1966.9979 c 447.2424,-130.2647 881.4582,-360.3991 1424.2281,-746.8513 551.45413,-399.4786 785.9307,-607.9022 959.61704,-846.7209 78.15886,-108.554 125.92261,-138.9491 221.4501,-143.2912 h 43.42158 l 8.68432,143.2912 c 17.36864,234.4766 -17.36863,399.4786 -130.26476,603.5601 l -56.44806,95.5275 -8.68432,-99.8697 c -4.34216,-56.4481 -8.68432,-217.1079 -13.02648,-356.057 0,-238.8187 -13.02647,-325.6619 -34.73726,-234.4766 -39.07943,156.3177 -542.76984,738.167 -942.24846,1089.8819 -234.4765,208.4236 -408.1629,343.0305 -642.6395,495.006 h 290.9247 c 178.0285,-134.6069 325.6619,-260.5295 490.6639,-412.505 403.82076,-373.4257 534.08552,-503.6904 642.63948,-646.9817 56.44807,-73.8167 104.21181,-125.9226 108.55397,-112.8961 13.02648,78.1589 -156.31771,625.2708 -286.58247,911.8533 -56.44807,121.5805 -99.86965,225.7923 -91.18534,234.4766 13.02648,8.6843 121.58045,-112.8961 230.13442,-256.1874 47.76374,-60.7902 104.2118,-134.6069 130.26476,-160.6598 117.23828,-125.9226 251.8452,-347.3727 421.189389,-681.719 60.7902215,-130.2647 125.922602,-243.1608 138.949078,-251.8452 26.052953,-21.7108 26.052953,-56.448 0,-78.1588 -13.026476,-8.6843 -26.052952,-60.7902 -34.73727,-117.2383 C 36.5439,1668.3483 23.517424,1603.216 19.175265,1577.163 c -4.342158,-43.4216 -4.342158,-47.7637 47.763746,-47.7637 43.421589,0 65.132379,17.3686 204.081459,147.6334 195.39714,195.3971 208.42362,221.45 212.76578,468.9531 4.34215,108.554 8.68431,199.7393 13.02647,199.7393 21.71079,26.0529 143.29124,-243.1609 125.9226,-273.556 -4.34216,-8.6843 -8.68431,-26.053 -4.34216,-43.4216 0,-13.0265 -4.34215,-34.7373 -13.02647,-43.4216 -26.05295,-30.3951 -86.84318,-156.3177 -86.84318,-178.0285 0,-47.7637 199.7393,8.6843 316.97759,91.1853 30.39511,21.7108 69.47454,60.7903 86.84317,86.8432 l 30.39511,47.7638 -121.58044,156.3177 c -130.26476,169.3442 -369.08349,412.5051 -694.74539,707.7718 -117.238285,104.2119 -273.556,247.5031 -343.03054,316.9776 -43.42158,39.0795 -69.47454,65.1324 -91.18533,82.501 H 1399.9817 c 230.1344,-78.1588 429.8737,-156.3177 577.5071,-225.7922 225.7923,-108.554 568.8228,-234.4766 586.1915,-217.1079 17.3686,17.3686 -8.6844,52.1059 -52.1059,65.1323 -17.3687,4.3422 -165.0021,69.4746 -325.6619,138.9491 -160.6599,69.4746 -347.3727,147.6334 -408.163,169.3442 -43.4216,17.3686 -117.2383,43.4216 -191.0549,69.4745 h 864.0895 c 4.3422,-4.3421 17.3687,-8.6843 21.7108,-13.0264 273.556,-117.2383 364.7414,-156.3177 408.1629,-151.9756 v -495.0061 c -369.0834,-195.3971 -547.112,-312.6354 -694.7453,-464.611 -95.5275,-99.8696 -108.554,-108.5539 -560.1385,-334.3462 l -221.4501,-112.8961 h -165.002 c -165.0021,0 -169.3442,0 -234.4766,-43.4216 -34.73728,-26.0529 -99.86966,-69.4745 -147.63341,-99.8696 -47.76374,-30.3952 -117.23828,-78.1589 -151.97555,-108.554 -73.8167,-60.7902 -104.21181,-69.4745 -230.13441,-39.0794 -65.13238,13.0264 -78.15886,8.6843 -104.21181,-13.0265 C 331.81069,1386.108 292.73126,1364.3972 145.09787,1299.2648 14.833107,1238.4746 10.490948,1234.1325 -72.010067,947.54999 -137.14245,721.75774 -171.87972,660.96752 -267.40721,591.49298 -306.48664,565.44003 -354.25038,526.3606 -375.96118,504.6498 l -43.42158,-39.07942 8.68432,-234.47657 c 8.68431,-282.240318 26.05295,-360.39917 130.26476,-577.50711 191.054978,-395.13644 260.529517,-633.95517 303.951104,-990.0122 13.026476,-121.5804 26.052952,-221.4501 30.395111,-230.1344 4.342159,-4.3421 17.368635,-8.6843 30.395111,-8.6843 65.132384,0 312.635424,-186.7128 403.820754,-308.2933 121.58045,-160.6598 256.18737,-455.9266 338.68838,-755.5356 69.47454,-238.8187 78.15886,-269.2138 182.37062,-516.7169 130.2648,-321.3197 364.7414,-933.5641 399.4786,-1046.4602 52.106,-182.3707 104.2119,-455.9267 112.8962,-616.5865 8.6843,-173.6864 -13.0265,-330.0041 -69.4746,-468.9532 -52.1059,-125.9226 -47.7637,-125.9226 -225.7922,-8.6843 -160.6599,108.554 -330.00408,238.8187 -451.58452,351.7148 -39.07943,34.7373 -73.8167,60.7903 -78.15886,60.7903 0,-4.3422 8.68432,-52.1059 26.05295,-99.8697 43.42159,-147.6334 147.6334,-586.1914 204.08146,-864.0896 69.47454,-351.7148 86.84317,-534.0855 73.81667,-820.6679 -17.36861,-508.0326 -125.92257,-937.9063 -338.68835,-1320.0163 -56.44806,-99.8696 -143.29124,-277.8981 -195.39714,-395.1364 -169.34419,-386.4522 -390.794282,-764.22 -668.69244,-1133.3034 -330.00406,-442.9002 -486.32177,-607.9026 -768.56209,-820.6676 -338.68838,-256.188 -1011.72298,-529.744 -1515.41338,-616.587 -286.5825,-47.764 -664.3503,-78.159 -972.6435,-78.159 z m 1519.7555,86.843 v 4.343 h 17.3686 z m -1645.6781,238.819 c 264.8716,-4.342 638.2973,8.684 798.9572,34.737 460.2688,65.133 655.6659,108.554 877.116,195.397 160.6599,65.133 425.5316,199.74 547.112,273.556 91.1853,60.791 273.556,212.7663 264.8717,221.4506 -4.3422,4.3421 -60.7902,-13.0265 -130.2648,-43.4216 -182.3706,-78.159 -429.8737,-130.265 -460.2688,-99.87 -4.3422,4.342 34.7373,47.764 86.8432,99.87 52.1059,52.1059 91.1853,95.5275 86.8431,99.8696 -4.3421,4.3422 -60.7902,-17.3686 -125.9226,-47.7637 -60.7902,-34.7369 -130.2647,-60.7899 -151.9755,-60.7899 -39.0794,0 -39.0794,0 17.3686,43.4213 34.7373,21.7107 78.1589,65.1323 95.5275,91.1853 21.7108,26.0529 56.4481,56.448 73.8167,65.1324 21.7108,13.0264 39.0794,26.0529 39.0794,34.7372 0,4.3422 -21.7107,0 -43.4215,-8.6843 -26.053,-13.0265 -52.1059,-21.7108 -60.7903,-21.7108 -13.0264,0 -43.4216,-17.3686 -73.8167,-30.3951 -52.1059,-30.3951 -56.448,-30.3951 -47.7637,-4.3421 8.6843,13.0264 26.0529,65.1323 39.0794,112.8961 17.3687,47.7637 39.0794,95.5275 52.1059,108.5539 8.6843,13.0265 17.3687,30.3952 17.3687,39.0795 0,17.3686 -43.4216,21.7108 -43.4216,4.3421 -4.3422,-4.3421 -4.3422,-21.7108 -4.3422,-39.0794 -8.6843,-52.1059 -52.1059,-130.2648 -104.2118,-178.0285 -26.0529,-26.053 -47.7637,-43.4216 -47.7637,-34.7373 0,8.6843 21.7108,65.1324 47.7637,125.9226 30.3951,65.1324 52.1059,134.607 52.1059,151.9756 0,52.1059 -21.7108,21.7108 -52.1059,-65.1324 -26.0529,-91.1853 -56.4481,-130.2648 -112.8961,-143.2912 l -39.0794,-8.6843 8.6843,91.1853 c 4.3421,52.1059 13.0264,121.5804 17.3686,160.6599 13.0265,95.5274 -13.0265,86.8431 -86.8432,-39.0795 -34.7372,-52.1059 -73.8167,-112.8961 -91.1853,-134.6069 l -34.7373,-39.0794 4.3422,47.7637 c 0,91.1854 -4.3422,195.3972 -13.0265,173.6864 -13.0265,-52.1059 -99.8696,-217.108 -108.554,-217.108 -17.3686,0 -13.0264,47.7638 26.053,186.7129 21.7108,73.8167 34.7373,138.949 30.3951,143.2912 -4.3422,0 -26.0529,-39.0794 -52.1059,-86.8432 -21.7108,-52.1059 -47.7637,-99.8696 -56.4481,-104.2118 -21.7108,-13.0265 -17.3686,47.7638 4.3422,130.2648 21.7108,69.4745 21.7108,86.8432 -4.3422,69.4745 -26.0529,-13.0265 -73.8167,-191.055 -65.1323,-230.1344 8.6843,-26.0529 4.3421,-34.7373 -13.0265,-34.7373 -17.3687,0 -26.053,17.3687 -26.053,69.4746 0,34.7372 0,78.1588 -4.3421,86.8432 0,13.0264 4.3421,47.7637 8.6843,78.1588 13.0265,86.8432 -13.0265,78.1589 -39.0794,-13.0265 -43.4216,-156.3177 -60.7903,-199.7393 -73.8167,-195.3971 -21.7108,4.3421 -21.7108,60.7902 0,173.6863 13.0264,56.4481 13.0264,108.554 8.6843,112.8962 -13.0265,8.6843 -21.7108,-13.0265 -78.1589,-186.7129 -21.7108,-69.4745 -43.4216,-125.9226 -47.7637,-125.9226 -17.3687,0 -30.3951,78.1589 -30.3951,191.055 0,52.1059 -4.3422,95.5275 -13.0265,91.1854 -13.0265,-8.6844 -47.7638,-169.3442 -47.7638,-234.4766 0,-26.053 -4.3421,-47.7638 -13.0264,-47.7638 -8.6843,0 -13.0265,13.0265 -13.0265,26.053 0,17.3686 -8.6843,34.7373 -21.7108,47.7637 -13.0265,8.6844 -21.7108,39.0795 -21.7108,69.4746 0,26.0529 -4.3422,78.1588 -13.0265,108.5539 l -8.6843,56.4481 -13.0265,-86.8432 c -4.3421,-47.7637 -17.3686,-117.2383 -26.0529,-156.3177 -21.7108,-91.1853 -34.7373,-65.1324 -52.1059,108.554 -8.6843,73.8167 -17.3687,134.6069 -21.7108,138.9491 -4.3422,4.3421 -8.6843,-47.7638 -13.0265,-112.8962 -4.3421,-65.1323 -13.0265,-130.2647 -17.3686,-147.6334 -21.7108,-52.1059 -34.7373,-4.3421 -34.7373,117.2383 0,151.9756 -21.7108,151.9756 -73.8167,-4.3421 -21.7108,-60.7903 -43.4216,-117.2383 -52.1059,-117.2383 -8.6843,-4.3422 -17.3686,47.7637 -26.0529,130.2647 -4.3422,78.1589 -17.3687,138.9491 -21.7108,138.9491 -8.6844,0 -13.0265,-4.3421 -13.0265,-13.0265 -4.3422,-47.7637 -43.4216,-308.2932 -52.1059,-316.9775 -4.3422,-4.3422 -13.0265,0 -17.3687,8.6843 -17.3686,13.0265 -47.7637,199.7393 -47.7637,269.2138 0,30.3951 -4.3422,52.1059 -13.0265,52.1059 -8.6843,0 -13.0265,-21.7108 -13.0265,-47.7637 0,-73.8167 -26.0529,-199.7393 -47.7637,-221.4501 -13.0265,-17.3687 -21.7108,-13.0265 -34.7373,21.7108 -8.6843,26.0529 -21.7108,82.501 -26.0529,125.9226 -26.053,195.3971 -60.7902,143.2912 -47.7638,-65.1324 l 8.6844,-134.6069 -30.3952,47.7637 c -17.3686,26.053 -39.0794,99.8697 -52.1059,160.6599 -13.0264,69.4745 -30.3951,121.5804 -43.4216,125.9226 -17.3686,4.3422 -17.3686,-13.0265 -13.0264,-78.1589 30.3951,-273.556 30.3951,-282.2403 8.6843,-282.2403 -30.3951,0 -73.8167,86.8432 -99.8697,178.0285 -13.0264,60.7903 -17.3686,65.1324 -52.1059,60.7903 -47.7637,-4.3422 -56.448,-34.7373 -26.0529,-95.5275 39.0794,-78.1589 13.0265,-60.7903 -34.7373,21.7108 -52.1059,95.5274 -82.501,117.2382 -65.1324,60.7902 8.6844,-39.0794 47.7638,-112.8961 95.5275,-182.3707 13.0265,-13.0265 13.0265,-30.3951 8.6843,-34.7373 -21.7108,-21.7107 -56.448,13.0265 -108.5539,117.2383 -56.4481,104.2118 -60.7902,108.554 -52.1059,56.4481 4.3421,-34.7373 17.3686,-99.8697 30.3951,-147.6334 21.7108,-91.1853 13.0265,-130.2648 -17.3687,-108.554 -8.6843,4.3422 -43.4215,60.7903 -73.8167,121.5805 -56.448,112.8961 -56.448,112.8961 -69.4745,69.4745 -4.3421,-26.0529 -8.6843,-73.8167 -8.6843,-104.2118 0,-30.3951 -4.3422,-56.4481 -8.6843,-52.1059 -21.7108,0 -91.1854,125.9226 -117.2383,225.7923 -17.3686,56.448 -39.0794,104.2118 -47.7638,104.2118 -13.0264,0 -13.0264,-86.8432 0,-173.6864 13.0265,-65.1324 8.6844,-99.8696 -13.0264,-99.8696 -4.3422,0 -26.053,47.7637 -47.7638,112.8961 -21.7108,60.7902 -47.7637,125.9226 -60.7902,138.9491 -21.7108,26.0529 -21.7108,17.3686 -13.0265,-65.1324 4.3422,-52.1059 13.0265,-117.2383 17.3687,-143.2913 l 4.3421,-52.1059 -34.7372,43.4216 c -17.3687,21.7108 -47.7638,78.1589 -69.4746,125.9226 -56.4481,143.2913 -69.4745,82.501 -17.3686,-95.5275 13.0265,-39.0794 17.3686,-73.8167 13.0265,-78.1588 -17.3687,-21.7108 -91.1854,91.1853 -112.8962,169.3442 -26.0529,99.8696 -43.4216,112.8961 -30.3951,26.0529 l 8.6843,-60.7902 -52.1059,56.4481 -52.1059,56.448 34.7373,-56.448 c 52.1059,-95.5275 112.8961,-212.7658 112.8961,-234.4766 0,-43.4216 -39.0794,0 -121.5804,130.2648 -47.7638,78.1588 -91.1854,134.6069 -91.1854,134.6069 -4.3421,-4.3422 8.6844,-56.4481 30.3952,-112.8961 78.1588,-234.4766 82.501,-260.5296 39.0794,-217.108 -17.3687,13.0265 -30.3951,39.0794 -30.3951,52.1059 0,17.3687 -26.053,69.4746 -56.4481,112.8961 -69.4745,91.1854 -73.8167,78.1589 -17.3686,-30.3951 56.448,-95.5275 56.448,-112.8961 0,-65.1323 -65.1324,52.1059 -65.1324,34.7372 -4.3422,-43.4216 52.1059,-69.4746 73.8167,-130.2648 56.4481,-147.6334 -4.3422,-4.3422 -30.3951,17.3686 -56.4481,47.7637 -21.7108,30.3951 -69.4745,82.501 -95.5275,112.8961 l -56.448,60.7903 21.7108,-69.4746 c 8.6843,-34.7372 30.3951,-86.8431 43.4215,-108.5539 69.4746,-138.9491 52.1059,-156.3181 -30.3951,-30.3951 -52.1059,82.501 -78.1588,112.8961 -47.7637,56.448 26.0529,-47.7637 8.6843,-47.7637 -56.4481,8.6843 -34.7372,26.053 -60.7902,47.7638 -60.7902,39.0795 0,-4.3422 34.7373,-56.4481 73.8167,-117.2383 39.0794,-56.4481 69.4745,-108.5535 69.4745,-112.8965 -4.3421,0 -43.4215,26.053 -82.501,60.7906 -173.6863,143.2912 -221.4501,130.2647 -65.1324,-17.3687 52.1059,-52.1059 91.1854,-95.5279 86.8432,-99.8699 -8.6843,-8.684 -82.501,30.395 -169.3442,86.843 -104.2118,78.1593 -99.8696,60.7907 8.6843,-43.421 73.8167,-69.475 95.5275,-91.185 69.4746,-91.185 -73.8167,0 -525.4012,321.3193 -811.9837,581.8488 -43.4216,39.0794 -108.554,95.5275 -147.6334,130.2648 -39.0794,30.3951 -112.8961,95.5275 -165.002,138.949 -47.7638,47.7638 -86.8432,82.5011 -86.8432,78.1589 0,-8.6843 26.053,-47.7637 56.4481,-95.5275 56.448,-82.501 95.5275,-169.3442 82.501,-182.3707 -34.7373,-34.7372 -208.4236,134.607 -360.3992,360.3992 -30.3951,47.7638 -91.1853,130.2648 -130.2647,182.3707 -121.5805,165.002 -117.2383,121.5804 13.0264,-138.9491 182.3707,-360.3992 377.7678,-564.4806 803.2994,-846.7209 377.7678,-247.5032 512.3747,-321.3202 920.5376,-468.9532 399.4786,-147.633 816.3259,-251.845 1172.3829,-290.925 52.1059,-4.342 125.9226,-4.342 212.7658,-8.684 z m -1927.9185,655.666 c -165.002,99.8697 -455.9267,356.057 -455.9267,403.8208 0,39.0794 43.4216,8.6843 169.3442,-117.2383 151.9756,-143.2912 234.4766,-217.1079 369.0835,-312.6355 56.4481,-39.079 69.4745,-52.106 56.4481,-47.764 -17.3687,4.342 -65.1324,30.395 -138.9491,73.817 z m 3569.2544,290.9247 c 13.0265,0 30.3951,30.3951 43.4216,78.1588 8.6843,26.053 21.7108,65.1324 30.3951,91.1854 13.0265,52.1059 -8.6843,82.501 -26.0529,30.3951 -52.1059,-143.2913 -65.1324,-186.7129 -56.4481,-195.3972 4.3422,0 4.3422,-4.3421 8.6843,-4.3421 z m -117.2382,13.0264 c 0,0 0,4.3422 -4.3422,4.3422 -4.3422,4.3422 4.3422,39.0794 17.3686,78.1589 26.053,73.8167 43.4216,65.1323 26.053,-17.3687 -4.3422,-39.0794 -21.7108,-65.1324 -39.0794,-65.1324 z m 403.8207,17.3687 c 8.6843,0 21.7108,4.3421 26.053,13.0265 4.3421,8.6843 0,13.0264 -8.6844,13.0264 -4.3421,0 -17.3686,-4.3421 -21.7107,-13.0264 -4.3422,-8.6844 -4.3422,-13.0265 4.3421,-13.0265 z m -2479.3726,91.1853 c 4.3422,4.3422 8.6843,17.3686 8.6843,39.0794 0,26.053 -8.6843,65.1324 -13.0265,82.5011 -8.6843,30.3951 -13.0264,21.7107 -13.0264,-39.0795 0,-39.0794 4.3421,-78.1588 13.0264,-82.501 0,0 4.3422,0 4.3422,0 z m 2001.7352,0 c 8.6843,4.3422 26.0529,43.4216 43.4215,108.554 13.0265,39.0794 17.3687,78.1588 13.0265,82.501 -13.0265,13.0265 -65.1324,-112.8961 -65.1324,-160.6599 0,-21.7108 4.3422,-30.3951 8.6844,-30.3951 z m -1298.3055,99.8697 c 0,0 4.3422,0 4.3422,4.3421 4.3421,13.0265 4.3421,26.053 0,30.3951 -4.3422,4.3422 -8.6844,-4.3421 -8.6844,-21.7108 0,-4.3421 4.3422,-13.0264 4.3422,-13.0264 z m -1984.3665,386.4521 c 13.0265,4.3421 13.0265,47.7637 0,130.2647 -30.3951,169.3442 -30.3951,173.6864 -4.3422,173.6864 13.0265,0 21.7108,17.3686 26.053,43.4216 4.3421,52.1059 26.0529,47.7637 39.0794,-13.0265 4.3422,-26.053 17.3686,-56.4481 30.3951,-65.1324 17.3687,-13.0265 17.3687,-8.6843 17.3687,34.7373 0,26.0529 -4.3422,69.4745 -13.0265,95.5275 -8.6843,21.7108 -13.0265,52.1059 -8.6843,65.1324 8.6843,21.7108 17.3686,17.3686 56.448,-17.3687 l 43.4216,-39.0794 -13.0265,60.7902 c -8.6843,52.1059 -4.3421,60.7902 21.7108,60.7902 17.3687,0 30.3951,13.0265 34.7373,34.7373 17.3686,56.4481 43.4216,34.7373 56.4481,-34.7373 21.7108,-151.9755 39.0794,-156.3177 39.0794,-13.0264 0,143.2912 4.3421,147.6334 56.4481,143.2912 8.6843,-4.3422 26.0529,4.3422 39.0794,13.0265 21.7108,21.7108 26.0529,13.0265 39.0794,-78.1589 17.3686,-104.2118 39.0794,-95.5275 39.0794,21.7108 v 104.2118 l 34.7373,-95.5275 c 17.3686,-56.448 39.0794,-104.2118 43.4216,-108.5539 4.3422,-4.3422 8.6843,43.4216 8.6843,108.5539 0,60.7903 4.3422,104.2118 8.6843,95.5275 13.0265,-30.3951 34.7373,-21.7108 34.7373,8.6843 0,30.3952 60.7902,65.1324 86.8432,52.1059 4.3421,-4.3421 13.0264,-34.7372 13.0264,-65.1323 l 4.3422,-52.1059 8.6843,56.448 c 4.3422,43.4216 17.3687,65.1324 47.7638,82.501 34.7372,17.3687 43.4216,17.3687 52.1059,0 8.6843,-13.0264 17.3686,-39.0794 17.3686,-60.7902 0,-60.7902 21.7108,-47.7637 30.3951,17.3687 17.3687,117.2382 52.1059,108.5539 86.8432,-13.0265 8.6843,-34.7373 21.7108,-56.4481 30.3951,-56.4481 8.6843,4.3422 21.7108,39.0794 30.3951,82.501 21.7108,104.2118 47.7638,108.554 56.4481,8.6843 13.0265,-95.5274 39.0794,-91.1853 39.0794,4.3422 0,130.2648 39.0794,82.501 43.4216,-47.7637 0,-34.7373 0,-39.0795 13.0265,-17.3687 4.3421,17.3687 13.0264,69.4746 21.7108,112.8961 8.6843,73.8167 26.0529,112.8962 43.4215,91.1854 4.3422,0 17.3687,-34.7373 26.053,-73.8167 l 21.7108,-69.4746 v 65.1324 c 0,82.501 30.3951,95.5275 30.3951,13.0265 0,-30.3951 8.6843,-60.7902 21.7108,-69.4745 13.0265,-13.0265 17.3686,-4.3422 26.0529,60.7902 0,43.4216 8.6844,82.501 13.0265,86.8432 21.7108,21.7108 39.0795,-13.0265 39.0795,-65.1324 0,-30.3951 8.6843,-56.4481 13.0264,-56.4481 8.6843,0 17.3687,34.7373 17.3687,73.8167 0,60.7902 4.3421,73.8167 30.3951,82.501 17.3686,8.6843 43.4216,8.6843 56.448,0 21.7108,-8.6843 26.053,-8.6843 26.053,8.6843 0,39.0795 34.7373,17.3687 52.1059,-34.7372 l 17.3686,-52.1059 8.6843,60.7902 c 8.6844,34.7373 17.3687,65.1324 26.053,69.4745 13.0265,8.6843 39.0794,-39.0794 39.0794,-78.1588 0,-17.3687 8.6843,-26.053 17.3687,-21.7108 8.6843,4.3421 13.0264,30.3951 8.6843,56.448 -13.0265,65.1324 8.6843,78.1589 26.0529,13.0265 21.7108,-78.1588 43.4216,-73.8167 69.4746,17.3687 13.0264,43.4215 26.0529,78.1588 30.3951,78.1588 4.3421,0 13.0265,-34.7373 21.7108,-78.1588 17.3686,-86.8432 39.0794,-91.1854 52.1059,-13.0265 8.6843,39.0794 13.0265,47.7637 30.3951,30.3951 17.3686,-13.0265 21.7108,-13.0265 34.7373,4.3421 4.3421,13.0265 13.0264,30.3952 13.0264,43.4216 0,34.7373 43.4216,-73.8167 43.4216,-112.8961 0,-52.1059 34.7373,-34.7373 39.0795,21.7108 4.3421,26.053 13.0264,52.1059 26.0529,60.7902 13.0265,8.6843 21.7108,34.7373 21.7108,52.1059 0,17.3687 4.3422,34.7373 13.0265,34.7373 8.6843,0 13.0264,-8.6843 13.0264,-21.7108 0,-34.7373 47.7638,-165.002 56.4481,-165.002 8.6843,0 8.6843,21.7108 8.6843,47.7637 -4.3421,43.4216 -4.3421,39.0794 17.3687,-17.3686 26.0529,-73.8167 47.7637,-78.1589 47.7637,-13.0265 0,69.4745 13.0265,108.554 43.4216,117.2383 17.3686,4.3422 30.3951,0 30.3951,-8.6843 0,-4.3422 4.3422,-13.0265 8.6843,-8.6843 34.7373,4.3421 47.7638,-8.6844 52.1059,-47.7638 l 4.3422,-47.7637 30.3951,65.1323 c 34.7373,60.7903 34.7373,60.7903 26.053,13.0265 l -8.6844,-47.7637 30.3951,30.3951 c 13.0265,17.3686 26.053,39.0794 26.053,43.4216 0,8.6843 8.6843,17.3686 17.3686,17.3686 8.6843,0 13.0265,-34.7373 13.0265,-78.1588 0,-43.4216 4.3422,-82.5011 13.0265,-82.5011 8.6843,0 21.7108,34.7373 30.3951,73.8167 8.6843,39.0795 21.7108,73.8167 30.3951,73.8167 13.0265,0 21.7108,-73.8167 17.3686,-134.6069 -4.3421,-39.0794 21.7108,-30.3951 30.3951,13.0265 4.3422,21.7108 26.053,60.7902 43.4216,91.1853 30.3951,43.4216 34.7373,47.7638 34.7373,17.3687 0,-17.3687 -8.6843,-56.4481 -21.7108,-86.8432 -26.0529,-69.4746 -13.0265,-78.1589 17.3686,-8.6843 17.3687,30.3951 34.7373,52.1059 39.0795,52.1059 8.6843,-4.3422 21.7108,8.6843 30.3951,21.7108 34.7373,43.4216 60.7902,0 56.448,-95.5275 0,-95.5275 17.3687,-104.2118 34.7373,-17.3687 13.0265,73.8167 30.3951,108.554 30.3951,56.4481 4.3422,-52.1059 30.3951,-47.7637 56.4481,4.3422 17.3686,30.3951 17.3686,26.0529 8.6843,-39.0795 -4.3421,-39.0794 -8.6843,-82.501 -13.0265,-95.5275 -4.3421,-13.0264 -4.3421,-26.0529 4.3422,-26.0529 8.6843,0 17.3686,26.0529 26.0529,56.4481 4.3422,30.3951 17.3687,69.4745 26.053,86.8431 21.7108,34.7373 21.7108,26.053 21.7108,-91.1853 4.3421,-138.9491 17.3686,-143.2912 43.4216,-8.6843 17.3686,82.501 39.0794,121.5804 60.7902,108.5539 8.6843,-4.3421 13.0265,-21.7107 13.0265,-39.0794 0,-13.0265 4.3421,-21.7108 13.0265,-17.3686 4.3421,4.3421 8.6843,-21.7108 4.3421,-56.4481 -8.6843,-82.501 13.0265,-86.8432 34.7373,-13.0265 13.0265,30.3952 26.0529,69.4746 39.0794,82.5011 21.7108,26.0529 21.7108,26.0529 21.7108,-26.053 0,-60.7902 13.0265,-65.1324 47.7637,-13.0265 l 26.053,39.0795 -8.6843,-47.7638 c -4.3422,-30.3951 -13.0265,-69.4745 -17.3687,-86.8432 l -4.3421,-39.0794 30.3951,39.0794 c 21.7108,21.7108 43.4216,47.7638 52.1059,65.1324 26.053,43.4216 39.0794,13.0265 34.7373,-73.8167 0,-43.4216 4.3421,-78.1588 13.0264,-78.1588 4.3422,0 21.7108,26.0529 34.7373,56.448 17.3687,30.3951 34.7373,65.1324 47.7638,73.8167 21.7108,21.7108 39.0794,-56.448 17.3686,-108.5539 -26.053,-69.4746 8.6843,-78.1589 47.7637,-13.0265 65.1324,99.8696 82.5011,91.1853 56.4481,-26.053 -8.6843,-30.3951 -13.0265,-56.448 -8.6843,-56.448 4.3421,0 17.3686,26.0529 34.7373,56.448 l 26.0529,52.1059 4.3422,-52.1059 c 0,-69.4745 21.7108,-69.4745 52.1059,-4.3421 13.0265,26.0529 30.3951,47.7637 34.7372,47.7637 8.6844,0 8.6844,-47.7637 4.3422,-108.554 l -8.6843,-112.8961 34.7373,34.7373 c 21.7107,21.7108 39.0794,47.7637 39.0794,60.7902 0,17.3686 8.6843,26.053 17.3686,26.053 8.6843,0 8.6843,-8.6844 4.3422,-26.053 -4.3422,-13.0265 -13.0265,-39.0794 -17.3687,-60.7902 -4.3421,-26.053 0,-21.7108 26.053,21.7108 13.0265,26.0529 34.7373,52.1059 43.4216,52.1059 21.7108,0 43.4216,-60.7902 34.7373,-104.2118 -8.6844,-43.4216 0,-47.7638 34.7372,-17.3687 26.053,21.7108 26.053,17.3687 17.3687,-13.0264 -8.6844,-47.7638 8.6843,-47.7638 52.1059,0 26.0529,34.7372 34.7372,39.0794 47.7637,17.3686 8.6843,-8.6843 13.0265,-34.7373 8.6843,-52.1059 -4.3421,-26.053 0,-39.0794 21.7108,-43.4216 13.0265,-4.3421 26.053,-17.3686 26.053,-30.3951 0,-43.4216 17.3686,-43.4216 73.8167,0 30.3951,21.7108 56.448,43.4216 65.1323,43.4216 8.6844,0 0,-65.1324 -17.3686,-147.6334 -8.6843,-34.7373 -4.3421,-39.0794 21.7108,-39.0794 56.44807,0 225.79226,247.503 212.76578,316.9776 0,17.3686 -21.71079,39.0794 -47.76375,47.7637 -69.47453,26.0529 -104.2118,56.4481 -99.86965,95.5275 0,30.3951 -4.34215,34.7373 -43.42158,34.7373 -26.053,0 -56.4481,8.6843 -69.4745,26.0529 -13.0265,13.0265 -34.7373,21.7108 -43.4216,21.7108 -13.0265,0 -26.053,13.0265 -30.3951,30.3951 -4.3422,13.0265 -30.3952,34.7373 -56.4481,43.4216 -21.7108,13.0265 -65.1324,39.0794 -91.1853,60.7902 -26.053,21.7108 -56.4481,34.7373 -65.1324,30.3951 -13.0265,-4.3421 -26.053,4.3422 -30.3951,21.7108 -8.6843,26.053 -17.3687,30.3951 -52.1059,21.7108 -34.7373,-4.3421 -43.4216,0 -60.7903,30.3951 -8.6843,21.7108 -26.0529,34.7373 -34.7372,30.3951 -13.0265,-4.3421 -21.7108,0 -26.053,13.0265 -8.6843,17.3687 -17.3686,17.3687 -47.7637,4.3422 -30.3951,-13.0265 -39.0794,-13.0265 -56.4481,8.6843 -8.6843,13.0265 -13.0265,30.3951 -8.6843,39.0794 0,4.3422 -4.3422,13.0265 -13.0265,21.7108 -8.6843,4.3422 -21.7108,0 -30.3951,-17.3686 -8.6843,-17.3687 -21.7108,-21.7108 -52.1059,-13.0265 -43.4216,13.0265 -56.4481,30.3951 -56.4481,82.501 0,52.1059 -21.7107,52.1059 -43.4215,-4.3421 -13.0265,-21.7108 -26.053,-43.4216 -39.0795,-43.4216 -26.0529,0 -65.1323,69.4745 -56.448,104.2118 8.6843,21.7108 0,17.3686 -30.3951,-17.3687 -39.0795,-43.4215 -47.7638,-47.7637 -69.4746,-30.3951 -13.0265,13.0265 -17.3686,30.3951 -13.0265,56.4481 8.6844,26.053 4.3422,34.7373 -8.6843,26.053 -8.6843,-4.3422 -26.0529,-4.3422 -34.7372,4.3421 -13.0265,13.0265 -39.0795,13.0265 -65.1324,8.6843 -26.053,-4.3421 -43.4216,-4.3421 -43.4216,4.3422 0,8.6843 -13.0265,21.7108 -30.3951,30.3951 -26.053,13.0265 -39.0795,13.0265 -65.1324,0 -34.7373,-17.3686 -39.0794,-17.3686 -65.1324,17.3686 -21.7108,26.053 -30.3951,30.3951 -43.4216,17.3687 -34.7372,-34.7373 -69.4745,-21.7108 -78.1588,30.3951 -8.6843,47.7637 -34.7373,73.8167 -34.7373,30.3951 0,-13.0265 -8.6843,-30.3951 -21.7108,-43.4216 -30.3951,-30.3951 -65.1324,-4.3422 -65.1324,52.1059 0,34.7373 -4.3421,43.4216 -26.0529,39.0794 -13.0265,-4.3421 -26.053,-21.7108 -26.053,-43.4216 -8.6843,-73.8167 -91.1853,-56.448 -91.1853,17.3687 0,39.0794 -26.053,34.7373 -34.7373,-8.6843 -17.3686,-60.7903 -95.5275,-60.7903 -95.5275,0 0,21.7108 -4.3421,34.7372 -13.0264,34.7372 -8.6844,0 -13.0265,-8.6843 -13.0265,-17.3686 0,-26.053 -65.1324,-60.7902 -86.8432,-47.7637 -8.6843,8.6843 -21.7108,26.0529 -30.3951,47.7637 -17.3686,39.0794 -34.7373,43.4216 -47.7637,4.3422 -4.3422,-17.3687 -17.3687,-30.3952 -30.3952,-30.3952 -13.0264,0 -26.0529,13.0265 -30.3951,30.3952 -13.0264,43.4215 -47.7637,34.7372 -65.1324,-13.0265 -21.7107,-60.7902 -69.4745,-56.4481 -91.1853,8.6843 -13.0265,43.4216 -52.1059,43.4216 -52.1059,0 0,-17.3686 -8.6843,-43.4216 -21.7108,-52.1059 -17.3686,-17.3686 -21.7108,-13.0265 -21.7108,17.3686 v 0 c 0,39.0795 -17.3686,73.8167 -30.3951,60.7903 -8.6843,-8.6844 -13.0265,-21.7108 -13.0265,-39.0795 0,-34.7372 -21.7108,-34.7372 -34.7372,4.3422 -13.0265,39.0794 -34.7373,34.7373 -34.7373,-4.3422 0,-17.3686 -8.6843,-47.7637 -21.7108,-60.7902 -17.3686,-26.053 -17.3686,-21.7108 -39.0794,34.7373 -30.3951,65.1324 -69.4746,69.4745 -69.4746,0 0,-39.0795 -21.7108,-56.4481 -65.1323,-56.4481 -13.0265,0 -26.053,21.7108 -34.7373,47.7638 -8.6843,30.3951 -13.0265,34.7372 -13.0265,13.0264 0,-17.3686 -13.0265,-43.4216 -30.3951,-65.1324 -30.3951,-30.3951 -30.3951,-30.3951 -52.1059,-4.3421 -8.6843,17.3686 -21.7108,39.0794 -21.7108,52.1059 0,17.3686 -4.3422,26.0529 -13.0265,26.0529 -8.6843,0 -13.0264,-17.3686 -13.0264,-39.0794 0,-60.7902 -26.053,-69.4745 -52.106,-21.7108 l -21.7107,39.0795 v -43.4216 c 0,-65.1324 -26.053,-73.8167 -43.4216,-21.7108 -17.3687,52.1059 -43.4216,60.7902 -43.4216,17.3686 0,-30.3951 -65.1324,-78.1588 -86.8432,-65.1324 -4.3422,4.3422 -13.0265,26.053 -13.0265,43.4216 0,26.053 -8.6843,34.7373 -26.0529,34.7373 -21.7108,0 -30.3951,-13.0265 -39.0794,-69.4746 -17.3687,-121.5804 -34.7373,-138.949 -65.1324,-52.1059 -21.7108,65.1324 -34.7373,65.1324 -47.7638,-13.0264 -8.6843,-52.1059 -13.0265,-56.4481 -26.0529,-30.3951 -47.7638,69.4745 -56.4481,73.8167 -47.7638,17.3686 8.6843,-43.4216 4.3422,-56.4481 -8.6843,-52.1059 -8.6843,4.3421 -21.7108,21.7108 -26.0529,43.4216 -4.3422,17.3686 -17.3687,34.7372 -26.053,39.0794 -13.0265,4.3422 -17.3686,-8.6843 -8.6843,-47.7637 13.0265,-65.1324 -21.7108,-69.4746 -52.1059,-4.3422 l -17.3687,47.7637 -8.6843,-56.448 c -13.0264,-56.4481 -34.7372,-69.4746 -43.4216,-21.7108 -4.3421,21.7108 -13.0264,43.4216 -21.7107,47.7637 -8.6844,13.0265 -8.6844,0 -4.3422,-30.3951 8.6843,-56.448 -13.0265,-65.1324 -34.7373,-13.0265 -21.7108,60.7903 -47.7637,47.7638 -34.7372,-21.7107 4.3421,-30.3952 4.3421,-56.4481 0,-56.4481 -17.3687,0 -65.1324,56.4481 -65.1324,78.1588 0,26.053 -13.0265,39.0795 -39.0795,26.053 -21.7107,-8.6843 -26.0529,-52.1059 -4.3421,-69.4745 17.3686,-8.6844 17.3686,-34.7373 0,-60.7903 -13.0265,-21.7108 -17.3686,-21.7108 -30.3951,0 -4.3422,8.6844 -13.0265,34.7373 -13.0265,52.1059 0,21.7108 -8.6843,30.3952 -21.7108,30.3952 -21.7108,0 -21.7108,-8.6844 -13.0265,-60.7903 4.3422,-43.4216 4.3422,-65.1324 -8.6843,-65.1324 -8.6843,0 -17.3686,26.053 -21.7108,56.4481 -13.0265,78.1589 -34.7373,73.8167 -30.3951,-8.6843 0,-60.7902 0,-69.4745 -26.0529,-73.8167 -21.7108,-4.3422 -26.053,0 -17.3687,39.0794 8.6843,60.7902 0,86.8432 -26.0529,86.8432 -17.3687,0 -21.7108,-17.3686 -21.7108,-56.4481 0,-112.8961 -43.4216,-138.949 -69.4746,-43.4216 -26.0529,78.1589 -43.4216,69.4746 -43.4216,-17.3686 0,-78.1588 -21.7107,-82.501 -43.4215,-8.6843 -17.3687,69.4745 -39.0795,43.4216 -34.7373,-39.0794 8.6843,-86.8432 -17.3686,-78.1589 -34.7373,13.0264 -17.3686,73.8167 -39.0794,60.7903 -39.0794,-21.7107 0,-39.0795 -4.3422,-73.8167 -13.0265,-78.1589 -4.3421,-8.6843 -8.6843,-4.3422 -8.6843,4.3422 0,4.3421 -13.0265,39.0794 -21.7108,69.4745 -21.7108,39.0794 -26.0529,47.7637 -39.0794,30.3951 -4.3422,-8.6843 -4.3422,-43.4216 4.3421,-78.1589 17.3687,-78.1588 17.3687,-91.1853 -8.6843,-91.1853 -8.6843,0 -26.0529,26.053 -34.7372,65.1324 -26.053,95.5275 -52.106,82.501 -39.0795,-21.7108 4.3422,-47.7637 0,-86.8432 -4.3421,-86.8432 -8.6844,0 -26.053,34.7373 -39.0795,73.8167 -13.0264,39.0795 -26.0529,69.4746 -30.3951,65.1324 0,0 -4.3421,-47.7637 -8.6843,-95.5275 -4.3421,-104.2118 -26.0529,-125.9226 -56.4481,-52.1059 -17.3686,47.7638 -17.3686,52.1059 -30.3951,21.7108 -4.3421,-17.3686 -4.3421,-43.4216 0,-60.7902 4.3422,-13.0265 0,-34.7373 -8.6843,-47.7638 -17.3686,-17.3686 -21.7108,-17.3686 -39.0794,26.053 l -17.3686,47.7637 4.3421,-56.448 c 0,-60.7903 -8.6843,-69.4746 -69.4745,-43.4216 -26.053,8.6843 -26.053,8.6843 -17.3687,-39.0794 17.3687,-82.5011 178.0285,-390.7943 251.8452,-477.6375 43.4216,-43.4216 82.5011,-95.5275 95.5275,-112.8961 8.6844,-13.0265 17.3687,-21.7108 21.7108,-21.7108 4.3422,0 4.3422,0 4.3422,0 z m 1176.725,642.6395 c 4.3422,0 13.0265,8.6843 13.0265,17.3686 0,4.3422 -8.6843,13.0265 -13.0265,13.0265 -8.6843,0 -17.3686,-8.6843 -17.3686,-13.0265 0,-8.6843 8.6843,-17.3686 17.3686,-17.3686 z m -2744.2443,898.8268 c 0,182.3707 -4.3422,217.1079 -147.6334,981.3279 -34.7373,169.3442 -69.4745,390.7943 -82.501,499.3482 -8.6843,104.2118 -26.053,251.8452 -30.3951,334.3462 -8.6843,125.9226 -13.0265,134.607 -21.7108,78.1589 -4.3422,-34.7373 -17.3686,-182.3707 -26.053,-321.3197 -17.3686,-269.2139 -4.3421,-477.6375 39.0795,-816.3259 8.6843,-82.501 30.3951,-312.6354 47.7637,-508.0325 60.7902,-759.8778 104.2118,-1046.4603 143.2912,-1046.4603 21.7108,0 73.8167,547.112 78.1589,798.9572 z m 3551.8858,-581.8492 c 4.3422,17.3686 0,30.3951 -4.3422,30.3951 -8.6843,0 -13.0264,-13.0265 -13.0264,-30.3951 0,-13.0265 0,-26.053 4.3421,-26.053 4.3422,0 8.6843,13.0265 13.0265,26.053 z m 521.0591,4.3421 c 4.3421,0 4.3421,4.3422 8.6843,4.3422 4.3421,4.3421 13.0264,13.0264 13.0264,13.0264 0,4.3422 -8.6843,8.6844 -13.0264,8.6844 -8.6843,0 -17.3687,-8.6844 -17.3687,-17.3687 0,-4.3421 4.3422,-4.3421 4.3422,-8.6843 4.3422,0 4.3422,0 4.3422,0 z m -2149.3686,95.5275 c 0,30.3951 -21.7108,39.0794 -39.0794,17.3686 -8.6843,-17.3686 4.3421,-43.4216 26.0529,-43.4216 4.3422,0 13.0265,13.0265 13.0265,26.053 z m 3239.2504,86.8432 c 4.3421,0 8.6843,8.6843 13.0265,21.7108 8.6843,13.0264 4.3421,21.7108 -4.3422,21.7108 -8.6843,0 -13.0265,-8.6844 -13.0265,-21.7108 0,-13.0265 4.3422,-21.7108 4.3422,-21.7108 z m 2123.31558,43.4216 c 4.34216,0 21.71079,34.7372 39.07943,78.1588 17.36863,39.0794 60.79022,147.6334 95.52749,234.4766 78.15886,182.3707 147.63339,447.2423 208.42362,759.8778 34.73727,195.3971 39.07942,243.1608 34.73727,516.7168 0,408.163 -13.02648,490.664 -160.65988,1115.9348 -47.76374,195.3972 -95.52749,421.1894 -112.89612,512.3747 -17.36864,86.8432 -47.76375,204.0815 -69.47454,260.5296 -39.07943,108.5539 -73.8167,138.949 -56.44806,56.448 4.34216,-26.0529 13.02647,-108.5539 21.71079,-191.0549 34.73727,-351.7149 82.50102,-594.8758 134.60692,-742.5092 21.71079,-47.7637 52.1059,-173.6863 73.8167,-269.2138 78.15885,-403.8208 60.79022,-746.8513 -73.8167,-1359.0957 -26.05295,-125.9226 -69.47454,-343.0305 -91.18533,-477.6374 -21.7108,-134.607 -47.76375,-273.556 -56.44807,-312.6355 -17.36863,-69.4745 -8.68431,-182.3706 13.02648,-182.3706 z m -7685.62088,4.3421 c 4.3422,0 4.3422,30.3951 0,86.8432 -4.3422,47.7637 -13.0265,230.1344 -21.7108,403.8208 -8.6843,178.0285 -26.0529,495.006 -39.0794,707.7718 -34.7373,590.5336 -4.3422,872.7739 125.9226,1272.2525 39.0794,112.8961 82.501,256.1874 99.8696,316.9776 34.7373,125.9226 47.7638,143.2912 95.5275,143.2912 17.3687,0 39.0795,8.6844 39.0795,17.3687 21.7107,52.1059 82.501,512.3747 82.501,607.9022 0,60.7902 -8.6844,108.554 -13.0265,108.554 -34.7373,0 -130.2648,-251.8453 -225.7923,-590.5336 -34.7372,-121.5805 -91.1853,-295.2668 -121.5804,-382.11 -52.1059,-130.2648 -117.2383,-347.3727 -173.6864,-568.8228 -56.448,-208.4236 -65.1323,-811.9837 -21.7107,-1207.1201 21.7107,-208.4236 39.0794,-308.2933 121.5804,-751.1935 21.7108,-112.8961 43.4216,-173.6863 52.1059,-165.002 z m 985.67,78.1589 c 8.6843,4.3421 13.0265,47.7637 13.0265,134.6069 0,204.0815 17.3686,303.9511 82.501,429.8737 82.501,169.3442 256.1874,316.9776 369.0835,316.9776 43.4216,0 43.4216,-4.3422 -13.0265,-186.7128 -43.4216,-125.9226 -60.7902,-273.556 -39.0794,-273.556 8.6843,0 17.3686,30.3951 26.053,69.4745 17.3686,134.6069 156.3177,455.9267 217.1079,508.0326 13.0265,13.0265 73.8167,34.7372 134.6069,47.7637 143.2912,34.7373 555.7963,173.6864 855.4053,290.9247 134.6069,52.1059 286.5824,108.5539 338.6883,125.9226 52.1059,21.7107 173.6864,69.4745 273.556,108.5539 95.5275,43.4216 282.2404,108.554 412.5051,151.9756 269.2139,91.1853 412.5051,112.8961 694.7454,91.1853 334.3462,-21.7108 985.67,-225.7922 1593.5722,-495.0061 438.5581,-195.3971 586.19147,-277.8981 716.45623,-399.4786 121.58044,-117.2383 173.68635,-191.055 238.81873,-343.0305 21.71079,-60.7902 47.76374,-112.8961 56.44806,-112.8961 21.71079,0 30.39511,99.8696 39.07943,560.1384 l 8.68432,499.3483 43.42158,121.5804 c 26.05295,65.1324 95.52749,238.8187 156.31772,386.4521 60.79022,147.6334 117.23828,303.9512 125.922598,351.7149 8.684317,47.7637 21.710793,308.2933 26.052952,577.5071 8.684317,438.558 13.026476,508.0326 47.763745,694.7454 21.710794,117.2383 47.763746,247.503 56.448063,295.2668 8.684318,47.7637 13.026476,173.6863 17.368635,273.556 0,151.9755 -8.684317,212.7658 -34.737269,316.9776 -56.4480635,225.7922 -121.580444,356.057 -412.505074,855.4052 -21.7108,43.4216 -73.8167,130.2648 -112.89613,186.7128 -86.84317,147.6334 -112.89612,221.4501 -165.00203,486.3218 -26.05295,125.9226 -47.76374,238.8188 -52.1059,256.1874 -8.68432,17.3686 -4.34216,21.7108 4.34216,13.0265 8.68431,-8.6844 39.07942,-95.5275 69.47454,-191.055 60.79022,-212.7658 56.44806,-204.0815 178.0285,-369.0835 108.55397,-147.6334 247.50305,-351.7149 247.50305,-369.0835 0,-8.6843 4.34216,-8.6843 8.68431,-4.3422 8.68432,4.3422 13.02648,21.7108 8.68432,39.0795 0,17.3686 -17.36863,186.7128 -34.73727,377.7678 -47.76374,538.4277 -108.55397,942.2484 -178.0285,1159.35635 -47.76375,134.60692 -169.34419,373.42565 -251.84521,490.66393 -143.29123,195.39714 -547.11196,551.45415 -560.13846,495.00609 0,-13.026476 30.3951,-78.1588562 73.8167,-151.975554 95.5275,-151.975556 212.76576,-434.215866 256.18735,-612.244376 30.39511,-117.23828 34.73727,-160.65987 34.73727,-451.58454 0,-360.3991 -13.02648,-499.3482 -82.50101,-755.5356 -21.7108,-95.5275 -47.76375,-195.3971 -52.10591,-221.4501 -4.34216,-30.3951 -17.36863,-52.1059 -26.05295,-56.448 -26.05295,-8.6843 -21.71075,69.4745 21.71079,351.7148 30.39511,217.108 39.07943,303.9511 39.07943,577.5071 0,299.60898 -4.34216,334.34625 -34.73727,438.55806 -39.0794,147.63339 -73.8167,238.81872 -165.002,425.53155 -173.6864,373.4256451 -204.0815,473.29529 -169.3442,568.82279 21.7108,47.76374 -4.3422,73.81669 -282.2403,299.60895 -130.2648,108.55396 -303.9511,247.50304 -377.7678,312.63542 -151.9756,130.26476 -260.5296,186.71282 -434.2159,230.13443 -104.2118,26.0529 -147.6334,30.3951 -334.3462,21.7108 -117.2383,-4.3422 -238.8188,-13.0265 -269.2139,-21.7108 -160.6598,-47.76376 -260.5295,-212.76579 -282.2403,-451.58452 -8.6843,-78.15886 -13.0265,-151.97556 -8.6843,-160.65987 8.6843,-13.02648 0,-21.7108 -21.7108,-21.7108 -30.3951,0 -30.3951,8.68432 -30.3951,178.02851 0,199.7393 -17.3686,256.18736 -125.9226,390.79428 -52.1059,65.1324 -69.4745,78.1589 -130.2648,91.1853 -86.8431,17.3687 -369.0835,17.3687 -455.9266,0 -86.8432,-17.3686 -243.1609,-65.1323 -295.2668,-91.1853 -26.053,-13.02647 -86.8432,-56.44806 -134.6069,-99.86965 -47.7638,-39.07943 -156.3177,-125.9226 -238.8188,-186.71282 -425.5315,-321.31975 -629.613,-499.34825 -920.5376,-803.29936 -386.4521,-399.4786 -455.9267,-508.03257 -568.8228,-868.43174 -86.8432,-269.21383 -130.2648,-481.97963 -243.1609,-1120.27693 -21.7108,-117.2383 -52.1059,-273.556 -73.8167,-343.0305 -17.3686,-73.8167 -47.7637,-182.3707 -65.1324,-243.1609 -47.7637,-182.3707 -4.3421,-186.7129 143.2913,-4.3422 173.6863,208.4236 377.7678,421.1894 447.2423,464.611 69.4746,47.7637 147.6334,160.6599 169.3442,238.8187 13.0265,65.1324 34.7373,60.7902 26.053,-8.6843 -34.7373,-225.7923 -86.8432,-312.6354 -390.7943,-646.9816 -91.1854,-95.5275 -217.108,-251.8452 -282.2403,-347.3727 -217.108,-316.9776 -282.2403,-481.9797 -308.2933,-816.3259 -21.7108,-225.7922 4.3422,-399.4786 82.501,-560.1384 21.7108,-43.4216 26.053,-95.5275 17.3686,-503.6905 l -4.3421,-451.5845 43.4216,-121.5804 c 26.0529,-65.1324 108.5539,-243.1609 191.055,-395.1364 165.002,-303.9511 208.4236,-408.163 221.4501,-499.3483 21.7107,-138.9491 -78.1589,-764.2199 -147.6334,-933.5641 -52.1059,-130.2648 -60.7903,-221.4501 -43.4216,-425.5316 8.6843,-121.5804 21.7108,-186.7128 26.0529,-182.3706 z m 6652.18713,108.5539 c 0,-4.3421 0,0 0,0 4.34216,13.0265 -21.71079,117.2383 -60.79022,230.1345 -78.15885,247.503 -82.50101,230.1344 30.39511,681.7189 86.84318,351.7148 130.26476,581.8492 143.29124,772.9042 8.68432,156.3177 -8.68432,512.3747 -26.05295,486.3218 -4.34216,-8.6843 -21.7108,-95.5275 -30.39511,-191.055 -26.05295,-212.7658 -86.84318,-508.0326 -225.792254,-1063.8289 l -104.211809,-412.505 56.448063,-99.8697 c 26.052952,-52.1059 86.84317,-173.6863 134.60692,-264.8717 39.07943,-82.501 73.8167,-138.9491 82.50101,-143.2912 z m -7099.42943,225.7923 c 17.3686,0 173.6863,325.6619 182.3706,373.4256 17.3687,125.9226 -108.5539,668.6925 -286.5824,1207.1202 -78.1589,251.8452 -112.8962,403.8207 -147.6334,677.3767 -13.0265,108.554 -26.053,204.0815 -30.3951,212.7658 -4.3422,21.7108 -30.3951,26.0529 -39.0795,8.6843 -13.0264,-21.7108 34.7373,-616.5865 69.4746,-881.4582 26.0529,-169.3442 52.1059,-299.609 147.6334,-733.8248 95.5275,-416.8473 108.5539,-486.3218 99.8696,-686.0611 0,-95.5275 0,-178.0285 4.3422,-178.0285 z m 2323.0549,403.8208 c 8.6843,169.3441 52.1059,390.7942 99.8696,534.0855 17.3687,56.448 26.053,99.8696 21.7108,99.8696 -21.7108,0 -104.2118,-138.9491 -130.2647,-230.1344 -43.4216,-138.9491 -56.4481,-264.8717 -56.4481,-460.2688 0,-186.7128 8.6843,-273.556 30.3951,-273.556 13.0265,0 21.7108,91.1853 34.7373,330.0041 z m 3725.57213,-251.8453 c 17.36864,0 -8.68432,182.3707 -39.07943,260.5296 -17.36863,43.4216 -43.42158,95.5275 -65.13238,117.2383 l -34.73727,39.0794 34.73727,-78.1589 c 21.7108,-43.4216 47.76375,-134.6069 60.79022,-199.7393 13.02648,-69.4745 30.39512,-130.2647 39.07943,-138.9491 0,0 4.34216,0 4.34216,0 z m -2336.08133,151.9756 c 13.0264,-4.3422 26.0529,13.0265 30.3951,65.1324 4.3421,34.7373 13.0264,151.9755 17.3686,260.5295 13.0265,217.1079 -4.3422,356.057 -52.1059,538.4277 -30.3951,112.8961 -60.7902,169.3442 -73.8167,147.6334 -21.7108,-34.7373 -43.4216,-338.6884 -34.7373,-499.3483 8.6843,-251.8452 69.4746,-490.6639 112.8962,-512.3747 z m -1124.6191,156.3177 c 8.6843,0 17.3686,17.3687 21.7108,39.0794 34.7372,151.9756 60.7902,238.8188 125.9226,408.163 39.0794,108.5539 86.8431,217.1079 99.8696,247.503 13.0265,30.3951 26.053,52.1059 21.7108,52.1059 -21.7108,0 -104.2118,-117.2383 -147.6334,-208.4236 -78.1589,-156.3177 -160.6599,-538.4277 -121.5804,-538.4277 z m 2570.5579,134.6069 c 0,0 4.3422,4.3422 4.3422,4.3422 13.0264,8.6843 17.3686,43.4216 13.0264,104.2118 -8.6843,104.2118 -52.1059,204.0815 -121.5804,286.5825 -60.7902,73.8167 -65.1324,52.1059 -13.0265,-56.4481 26.053,-56.448 60.7902,-151.9755 73.8167,-204.0814 13.0265,-56.4481 26.053,-112.8962 30.3951,-121.5805 0,-4.3421 4.3422,-8.6843 4.3422,-8.6843 4.3421,-4.3422 4.3421,-4.3422 8.6843,-4.3422 z m -929.222,65.1324 c 21.7108,-4.3421 -8.6843,182.3707 -65.1323,360.3992 -21.7108,60.7902 -56.4481,147.6334 -82.5011,195.3971 -26.0529,47.7638 -65.1323,95.5275 -82.501,104.2118 -30.3951,21.7108 -30.3951,21.7108 8.6843,-60.7902 60.7903,-134.6069 130.2648,-321.3197 169.3442,-460.2688 21.7108,-69.4745 39.0795,-130.2648 43.4216,-134.6069 4.3422,0 4.3422,-4.3422 8.6843,-4.3422 z m 408.163,138.9491 c 21.7108,-4.3422 -8.6844,73.8167 -73.8167,208.4236 -39.0795,73.8167 -78.1589,138.9491 -86.8432,138.9491 -21.7108,8.6843 -13.0265,-8.6843 39.0794,-117.2383 21.7108,-39.0794 52.1059,-104.2118 65.1324,-138.9491 13.0265,-39.0794 34.7373,-78.1588 47.7637,-86.8431 4.3422,-4.3422 8.6844,-4.3422 8.6844,-4.3422 z m 1415.54369,438.558 c -108.55397,4.3422 -256.18739,60.7902 -616.58649,238.8187 -547.112,273.556 -764.22,330.0041 -955.275,269.2139 -47.7637,-17.3686 -112.8961,-39.0794 -143.2912,-52.1059 -43.4216,-21.7108 -52.1059,-21.7108 -52.1059,-4.3422 0,26.053 78.1589,73.8167 178.0285,108.554 199.7393,73.8167 399.4786,21.7108 981.3279,-256.1874 316.9776,-156.3177 412.50505,-195.3971 534.08549,-221.4501 138.94908,-30.3951 138.94908,-30.3951 204.08146,26.053 60.79022,56.4481 86.84317,65.1324 78.15886,21.7108 -13.02648,-47.7638 -99.86965,-117.2383 -160.65987,-125.9226 -13.02648,0 -30.39511,-4.3422 -47.76375,-4.3422 z m -4785.05889,47.7638 c -108.554,-4.3422 -186.7128,26.0529 -264.8717,95.5275 -91.1853,82.501 -82.501,108.5539 13.0265,39.0794 91.1853,-69.4746 147.6334,-86.8432 277.8982,-78.1589 143.2912,13.0265 269.2138,65.1324 599.2179,247.5031 251.8452,138.9491 468.9531,243.1609 538.4276,256.1873 151.9756,30.3951 373.4257,-4.3421 421.1894,-60.7902 34.7373,-34.7373 30.3951,-34.7373 -47.7637,-8.6843 -82.501,30.3951 -277.8982,30.3951 -373.4257,0 -95.5274,-26.053 -290.9246,-125.9226 -455.9266,-221.4501 -221.4501,-134.6069 -512.3747,-251.8452 -660.0081,-269.2138 -17.3687,0 -34.7373,0 -47.7638,0 z m 5032.56194,225.7922 c -8.68432,4.3422 -17.36864,13.0265 -21.7108,34.7373 -4.34216,17.3686 -34.73727,65.1324 -69.47454,104.2118 -86.84317,91.1853 -412.5051,282.2403 -1063.8289,607.9022 -264.8717,130.2648 -521.059,269.2139 -573.1649,299.609 -65.1324,47.7637 -95.5275,56.448 -108.554,47.7637 -21.7108,-17.3686 -47.7637,-8.6843 -73.8167,30.3951 -26.0529,34.7373 -91.1853,34.7373 -125.9226,0 -26.0529,-30.3951 -52.1059,-130.2647 -78.1588,-316.9776 -13.0265,-60.7902 -21.7108,-99.8696 -30.3952,-91.1853 -34.7372,30.3951 -39.0794,273.556 -8.6843,399.4786 8.6843,39.0794 0,30.3951 -86.8431,-60.7902 -147.6334,-156.3177 -165.0021,-191.055 -173.6864,-338.6884 -4.3422,-82.501 -13.0265,-125.9226 -21.7108,-121.5804 -21.7108,4.3421 -30.3951,47.7637 -73.8167,282.2403 -21.7108,108.5539 -43.4216,199.7393 -47.7637,204.0814 -8.6843,8.6843 -30.3951,17.3687 -52.1059,21.7108 -34.7373,4.3422 -47.7638,-4.3421 -73.8167,-34.7372 -21.7108,-21.7108 -34.7373,-30.3952 -34.7373,-21.7108 0,34.7372 82.501,104.2118 121.5804,104.2118 60.7903,0 117.2383,-69.4746 138.9491,-169.3442 17.3687,-82.501 39.0794,-95.5275 39.0794,-26.053 0,56.4481 91.1854,312.6355 125.9226,351.7149 17.3687,21.7108 56.4481,52.1059 82.5011,65.1324 52.1059,21.7108 52.1059,26.0529 43.4215,78.1588 -4.3421,30.3951 -30.3951,104.2118 -56.448,169.3442 l -43.4216,112.8961 v 560.1385 0 c 0,516.7169 0,555.7963 26.053,555.7963 39.0794,0 56.448,-56.448 69.4745,-243.1609 4.3421,-99.8696 17.3686,-238.8187 26.0529,-312.6354 8.6844,-69.4745 8.6844,-199.7393 4.3422,-286.5825 l -8.6843,-156.3177 47.7637,34.7373 c 104.2118,73.8167 330.0041,308.2933 416.8473,429.8737 52.1059,73.8167 99.8696,130.2648 104.2118,130.2648 26.0529,0 -47.7638,-147.6334 -143.2913,-290.9247 -39.0794,-56.448 -91.1853,-147.6334 -117.2382,-195.3971 -39.0795,-78.1589 -43.4216,-104.2118 -39.0795,-156.3177 8.6843,-56.4481 52.1059,-117.2383 86.8432,-117.2383 4.3422,0 8.6843,21.7108 8.6843,56.4481 -4.3421,30.3951 -4.3421,60.7902 0,65.1323 4.3422,4.3422 60.7902,-13.0264 121.5805,-39.0794 125.9226,-47.7637 151.9755,-47.7637 286.5824,0 47.7638,17.3686 160.6599,39.0794 247.5031,47.7638 204.0814,21.7107 347.3727,-4.3422 508.0325,-86.8432 l 108.554,-52.1059 73.81671,52.1059 c 78.15885,60.7902 95.52749,86.8432 86.84317,125.9226 -13.02647,39.0794 -130.26478,138.9491 -256.18738,225.7922 -60.7902,39.0795 -112.8961,78.1589 -117.2383,86.8432 -13.0264,30.3951 99.8697,-17.3686 208.4237,-86.8432 112.89608,-73.8167 178.02846,-160.6598 191.05493,-260.5295 13.02648,-78.1588 8.68432,-73.8167 204.08146,-34.7373 73.8167,13.0265 169.34419,26.053 212.76578,26.053 h 73.8167 l -65.13238,-17.3686 c -34.73727,-13.0265 -82.50102,-30.3952 -99.86965,-39.0795 -104.21181,-60.7902 -173.68635,-108.5539 -169.34419,-121.5804 4.34216,-17.3686 182.37066,-17.3686 238.81872,0 34.73727,8.6843 52.10591,-8.6843 160.65988,-134.6069 134.60692,-151.9756 169.34419,-208.4237 208.42361,-338.6884 39.079432,-138.9491 8.684321,-269.2138 -121.58044,-495.0061 -82.50102,-143.2912 -238.81873,-477.6375 -273.556,-586.1914 -13.02647,-52.1059 -30.39511,-78.1589 -43.42158,-78.1589 z m -5340.85524,117.2383 c -47.7637,0 -65.1323,13.0265 -156.3177,117.2383 -56.448,65.1324 -151.9755,165.002 -208.4236,221.4501 -156.3177,156.3177 -169.3442,195.3971 -169.3442,442.9002 0,195.3971 0,204.0814 47.7638,316.9776 39.0794,104.2118 95.5275,191.0549 108.5539,178.0285 4.3422,-4.3422 -17.3686,-60.7903 -43.4215,-125.9226 -34.7373,-78.1589 -52.1059,-147.6334 -60.7903,-212.7658 -4.3421,-91.1854 -4.3421,-99.8697 34.7373,-147.6334 73.8167,-91.1853 282.2403,-273.556 312.6354,-273.556 8.6843,0 95.5275,43.4216 191.055,99.8696 173.6864,104.2118 490.6639,264.8717 668.6924,338.6884 56.4481,21.7108 99.8697,43.4216 99.8697,52.1059 0,4.3422 -43.4216,13.0265 -91.1853,17.3687 -130.2648,17.3686 -330.0041,69.4745 -473.2953,130.2647 -95.5275,34.7373 -151.9756,69.4746 -208.4236,125.9226 -138.9491,121.5805 -204.0815,151.9756 -282.2404,112.8961 -13.0264,-8.6843 -30.3951,-13.0264 -34.7372,-8.6843 -13.0265,8.6843 39.0794,91.1854 65.1323,99.8697 13.0265,8.6843 99.8697,17.3686 191.055,21.7108 95.5275,4.3421 169.3442,8.6843 169.3442,13.0264 0,26.053 -269.2138,108.554 -364.7413,117.2383 -56.4481,0 -108.554,8.6843 -112.8961,17.3687 -26.053,21.7108 308.2932,13.0264 438.558,-8.6844 l 117.2383,-26.0529 86.8432,95.5275 c 47.7637,52.1059 91.1853,95.5275 104.2118,95.5275 30.3951,0 26.0529,-26.053 -8.6844,-47.7638 -39.0794,-26.0529 -82.501,-108.5539 -95.5274,-178.0285 -8.6844,-52.1059 -4.3422,-60.7902 26.0529,-82.501 30.3951,-21.7108 34.7373,-21.7108 78.1589,17.3686 78.1588,73.8167 147.6334,117.2383 182.3706,117.2383 17.3687,0 65.1324,8.6843 104.2118,21.7108 147.6334,47.7638 486.3218,13.0265 633.9552,-65.1324 l 91.1853,-47.7637 104.2118,52.1059 c 108.554,56.4481 186.7129,69.4745 225.7923,34.7373 21.7108,-21.7108 30.3951,-17.3687 91.1853,8.6843 39.0795,17.3686 69.4746,43.4216 69.4746,52.1059 0,8.6843 -17.3687,43.4216 -43.4216,73.8167 -78.1589,99.8696 -260.5295,425.5315 -260.5295,464.611 4.3421,30.3951 60.7902,-52.1059 182.3706,-251.8452 69.4746,-112.8962 143.2913,-212.7658 186.7128,-256.1874 65.1324,-60.7902 82.5011,-69.4745 134.607,-69.4745 h 60.7902 l -8.6843,-108.554 c -4.3422,-56.4481 -13.0265,-134.6069 -17.3687,-178.0285 -8.6843,-60.7902 -4.3421,-73.8167 8.6844,-73.8167 69.4745,0 290.9246,-277.8982 312.6354,-382.11 13.0265,-73.8167 26.0529,-73.8167 47.7637,8.6843 8.6843,39.0795 21.7108,73.8167 26.053,78.1589 13.0265,4.3422 -4.3422,-99.8696 -17.3687,-121.5804 -4.3421,-8.6844 -17.3686,-95.5275 -30.3951,-195.3972 -13.0264,-104.2118 -26.0529,-195.3971 -30.3951,-208.4236 -17.3686,-39.0794 -30.3951,43.4216 -34.7373,173.6863 0,182.3707 -26.0529,243.1609 -147.6333,338.6884 -56.4481,43.4216 -147.6334,86.8432 -160.6599,73.8167 -4.3422,-4.3421 4.3421,-43.4216 21.7108,-91.1853 52.1059,-147.6334 56.448,-486.3218 4.3421,-434.2159 -4.3421,4.3422 -13.0264,56.4481 -21.7108,117.2383 -21.7108,208.4236 -82.501,347.3727 -169.3441,382.11 -52.106,21.7108 -86.8432,4.3421 -86.8432,-43.4216 0,-30.3951 -39.0795,-56.4481 -86.8432,-56.4481 -17.3686,0 -52.1059,-17.3686 -78.1589,-34.7372 -21.7107,-17.3687 -134.6069,-78.1589 -247.503,-134.607 -434.2159,-217.1079 -755.5356,-390.7942 -994.3543,-534.0855 -286.5825,-169.3442 -412.5051,-230.1344 -481.9797,-230.1344 z m 5332.17092,620.9287 c 4.34216,0 8.68432,0 13.02647,0 56.44807,17.3686 191.05499,147.6334 234.47657,234.4766 30.39511,65.1323 34.73727,91.1853 26.05296,138.949 -13.02648,86.8432 -73.8167,260.5296 -121.58045,356.0571 -43.42158,86.8431 -56.44806,91.1853 -173.68635,65.1323 -99.86964,-21.7108 -143.29123,-43.4216 -143.29123,-78.1588 0,-30.3951 -60.79022,-91.1854 -134.60692,-125.9226 -86.84317,-43.4216 -334.34627,-130.2648 -421.18937,-147.6334 -43.4216,-8.6843 -78.1589,-21.7108 -78.1589,-26.053 0,-13.0264 17.3687,-21.7108 451.58452,-251.8452 217.10794,-112.8961 312.63543,-160.6598 347.3727,-165.002 z m 1819.36448,286.5825 c 0,0 0,0 0,4.3421 17.3686,69.4746 -4.3421,234.4766 -34.7373,295.2668 -13.0264,17.3687 -47.7637,65.1324 -86.8431,104.2118 -117.2383,121.5805 -399.47863,564.4807 -581.8493,916.1955 -73.8167,138.9491 -138.94908,256.1874 -143.29124,264.8717 -8.68431,4.3421 -17.36863,-65.1324 -21.71079,-160.6599 -4.34216,-91.1853 -13.02647,-212.7658 -26.05295,-264.8717 -13.02648,-82.501 -13.02648,-104.2118 8.68432,-160.6598 34.73727,-91.1854 199.7393,-338.6884 325.6619,-490.664 117.23828,-138.949 503.69036,-490.6639 555.79636,-508.0325 0,0 4.3421,0 4.3421,0 z m -9596.1707,65.1323 56.4481,8.6844 c 78.1588,13.0264 264.8716,108.5539 416.8472,212.7657 125.9226,91.1854 390.7943,343.0306 660.0081,633.9552 l 138.9491,156.3177 -17.3686,247.5031 c -17.3687,269.2138 -30.3951,338.6883 -69.4746,373.4256 -34.7372,34.7373 -39.0794,30.3951 -130.2647,-199.7393 -43.4216,-99.8696 -95.5275,-212.7658 -117.2383,-251.8452 -21.7108,-34.7373 -69.4746,-117.2383 -108.554,-182.3707 -39.0794,-65.1323 -151.9755,-221.45 -256.1873,-347.3726 -195.3972,-247.5031 -234.4766,-282.2404 -369.0835,-299.609 -99.8697,-13.0265 -104.2118,0 -43.4216,99.8697 104.2118,182.3706 143.2912,221.45 143.2912,147.6333 0,-17.3686 8.6843,-34.7372 17.3686,-34.7372 30.3952,0 56.4481,104.2118 65.1324,247.503 8.6843,160.6599 56.4481,442.9002 78.1589,464.611 26.0529,26.053 30.3951,-8.6843 17.3686,-112.8961 -21.7108,-130.2648 -39.0794,-382.11 -30.3951,-382.11 4.3422,0 39.0794,26.053 73.8167,60.7902 56.4481,52.1059 69.4745,78.1589 82.501,147.6334 34.7373,173.6864 117.2383,477.6375 151.9756,564.4807 47.7637,130.2647 138.9491,295.2668 217.1079,395.1364 39.0794,47.7637 121.5805,169.3442 186.7128,269.2138 65.1324,99.8697 125.9226,191.055 138.9491,208.4237 17.3686,26.0529 21.7108,26.0529 95.5275,-8.6844 65.1324,-26.0529 78.1589,-30.3951 91.1853,-13.0264 26.053,30.3951 69.4746,212.7657 73.8167,303.9511 v 78.1588 l -65.1323,4.3422 c -56.4481,4.3421 -69.4746,-4.3422 -121.5805,-47.7638 -34.7373,-30.3951 -117.2383,-125.9226 -182.3707,-212.7657 -65.1323,-91.1854 -191.0549,-251.8452 -277.8981,-364.7414 -199.7393,-256.1873 -321.3198,-438.558 -399.4786,-603.56 -195.3972,-399.4786 -473.2953,-1220.1466 -508.0326,-1480.6761 z m 3343.4622,204.0815 c 52.1059,-4.3422 91.1853,43.4216 52.1059,82.501 -8.6843,13.0265 -26.053,17.3687 -39.0794,17.3687 -52.1059,0 -82.501,-78.1589 -39.0795,-95.5275 8.6844,0 17.3687,-4.3422 26.053,-4.3422 z m 3456.3583,47.7638 c 13.0265,0 26.053,4.3421 34.7373,17.3686 17.3686,17.3686 13.0265,26.0529 -8.6843,52.1059 -30.3951,34.7373 -73.8167,34.7373 -86.8432,4.3422 -17.3686,-43.4216 26.0529,-78.1589 60.7902,-73.8167 z m -3108.9856,86.8431 c 17.3686,-4.3421 34.7373,8.6843 60.7902,39.0795 21.7108,21.7107 52.1059,43.4215 69.4746,43.4215 30.3951,0 78.1588,21.7108 65.1323,30.3952 -86.8431,78.1588 -173.6863,130.2647 -238.8187,156.3177 -147.6334,56.448 -451.5845,52.1059 -607.9022,-13.0265 -52.1059,-17.3686 -143.2912,-112.8961 -143.2912,-143.2912 0,-34.7373 60.7902,-86.8432 99.8696,-86.8432 17.3686,0 39.0794,21.7108 60.7902,60.7902 117.2383,217.1079 468.9532,195.3971 586.1914,-34.7373 17.3687,-34.7372 30.3952,-52.1059 47.7638,-52.1059 z m 3391.2259,39.0795 c 21.7108,0 73.8167,34.7372 121.5805,78.1588 l 34.7372,26.053 -52.1059,60.7902 c -69.4745,73.8167 -125.9226,104.2118 -238.8187,121.5804 -182.3707,30.3951 -364.7413,13.0265 -499.3482,-43.4216 -78.1589,-34.7372 -169.3442,-117.2382 -156.3178,-143.2912 4.3422,-13.0265 34.7373,-34.7373 65.1324,-52.1059 l 60.7902,-34.7373 39.0795,56.4481 c 82.501,112.8961 182.3706,173.6863 286.5825,173.6863 117.2382,0 234.4765,-73.8167 295.2667,-191.0549 13.0265,-26.053 34.7373,-52.1059 43.4216,-52.1059 z m -3056.8797,13.0264 c 17.3686,0 104.2118,104.2118 104.2118,121.5805 v 0 c 0,30.3951 -86.8432,-39.0795 -99.8696,-78.1589 -8.6843,-17.3686 -13.0265,-17.3686 -39.0795,-4.3421 -17.3686,13.0264 -34.7372,17.3686 -43.4215,17.3686 -17.3687,0 60.7902,-56.4481 78.1588,-56.4481 z m 2162.395,56.4481 c 39.0795,0 69.4746,21.7108 47.7638,34.7373 -21.7108,13.0264 -82.501,21.7108 -99.8697,13.0264 -34.7372,-8.6843 8.6844,-47.7637 52.1059,-47.7637 z m 3256.6191,260.5295 c 4.3421,0 8.6843,4.3422 8.6843,17.3687 0,21.7107 -108.554,347.3726 -199.73933,594.8757 -82.50101,230.1344 -208.42361,512.3747 -277.89815,629.613 -60.79023,108.554 -217.10794,282.2403 -334.34622,373.4256 -73.8167,60.7903 -91.18534,65.1324 -104.21181,30.3952 -8.68432,-26.053 4.34216,-43.4216 56.44806,-69.4746 17.36864,-8.6843 56.44806,-60.7902 91.18533,-117.2383 30.39512,-52.1059 95.5275,-147.6334 138.94908,-208.4236 112.89613,-143.2912 138.94908,-204.0814 238.81873,-516.7169 73.8167,-238.8187 91.18533,-282.2403 186.71282,-438.558 60.79023,-95.5275 121.58049,-199.7393 143.29129,-234.4766 21.7107,-34.7372 39.0794,-56.448 52.1059,-60.7902 z m -4763.3481,86.8432 c -8.6843,0 -21.7108,17.3686 -34.7373,52.1059 -8.6843,39.0794 -13.0265,117.2383 -8.6843,256.1874 8.6843,191.0549 47.7637,529.7433 65.1324,555.7963 4.3421,8.6843 8.6843,13.0264 17.3686,8.6843 8.6843,-8.6843 4.3422,-91.1853 -26.053,-538.4277 -8.6843,-125.9226 -13.0264,-256.1874 -8.6843,-282.2403 8.6843,-34.7373 4.3422,-52.1059 -4.3421,-52.1059 z m 1762.9164,34.7373 c -4.3422,0 -8.6843,0 -8.6843,0 -21.7108,26.0529 151.9755,117.2382 290.9246,151.9755 112.8961,30.3951 195.3972,30.3951 208.4236,4.3422 0,-13.0265 -13.0264,-17.3687 -52.1059,-17.3687 -52.1059,0 -316.9776,-82.501 -395.1364,-125.9226 -17.3686,-8.6843 -34.7373,-13.0264 -43.4216,-13.0264 z m -2713.8492,0 c -39.0794,-4.3422 -217.1079,30.3951 -460.2688,95.5275 l -108.554,26.0529 95.5275,-4.3422 c 104.2118,-8.6843 421.1894,-73.8167 464.611,-99.8696 21.7108,-8.6843 21.7108,-17.3686 8.6843,-17.3686 z m -2683.454,290.9246 c -8.6844,52.1059 -4.3422,86.8432 17.3686,125.9226 v 0 l 21.7108,60.7902 13.0265,-65.1324 c 17.3686,-95.5275 13.0264,-290.9246 0,-290.9246 -17.3687,0 -43.4216,78.1589 -52.1059,169.3442 z m 4954.403,594.8757 c -8.6843,0 -21.7108,13.0265 -34.7373,30.3951 -34.7372,47.7638 -26.0529,91.1854 21.7108,238.8188 43.4216,108.5539 47.7638,143.2912 47.7638,269.2138 0,143.2912 0,147.6334 -60.7902,273.556 -60.7903,121.5804 -112.8962,178.0285 -60.7903,65.1324 17.3687,-43.4216 21.7108,-73.8167 13.0265,-117.2383 -13.0265,-78.1589 -65.1324,-199.7393 -86.8432,-199.7393 -8.6843,0 -47.7637,26.053 -91.1853,56.4481 -104.2118,82.501 -112.8961,78.1588 -104.2118,-30.3951 4.3422,-47.7638 4.3422,-117.2383 0,-147.6334 l -13.0265,-56.4481 -17.3686,43.4216 c -47.7638,112.8961 -230.1344,269.2138 -386.4521,325.6619 -104.2118,39.0794 -290.9247,43.4216 -356.057,8.6843 -112.8962,-65.1324 -186.7129,-173.6863 -204.0815,-312.6354 -8.6843,-56.4481 -17.3686,-82.501 -34.7373,-82.501 -21.7108,0 -26.0529,99.8696 -8.6843,212.7657 l 13.0265,65.1324 -86.8432,30.3951 c -47.7637,17.3687 -104.2118,52.1059 -130.2647,82.501 -43.4216,43.4216 -47.7638,52.1059 -30.3952,82.5011 13.0265,30.3951 34.7373,39.0794 104.2118,43.4215 117.2383,13.0265 191.055,47.7638 347.3727,169.3442 186.7129,138.9491 382.11,356.057 438.5581,490.664 34.7372,73.8167 47.7637,169.3442 34.7372,191.0549 -13.0264,21.7108 -125.9226,78.1589 -156.3177,78.1589 -13.0264,0 -17.3686,8.6843 -13.0264,17.3686 13.0264,21.7108 69.4745,4.3422 160.6598,-56.448 l 78.1589,-52.1059 -8.6843,-104.2118 c 0,-56.4481 0,-108.554 4.3421,-112.8962 4.3422,-8.6843 108.554,-95.5275 225.7923,-191.0549 212.7657,-169.3442 399.4786,-356.0571 473.2953,-473.2953 52.1059,-82.5011 95.5275,-221.4501 95.5275,-299.609 0,-34.7373 4.3421,-65.1324 8.6843,-65.1324 21.7108,0 251.8452,290.9247 364.7413,460.2688 204.0815,303.9512 338.6884,586.1915 412.5051,864.0896 43.4216,169.3442 52.1059,416.8473 13.0265,508.0326 -13.0265,30.39511 -21.7108,60.79022 -21.7108,60.79022 v 0 c 0,4.34216 8.6843,8.68431 21.7108,8.68431 43.4215,0 91.1853,-125.9226 112.8961,-299.60893 13.0265,-82.501 -8.6843,-260.5295 -52.1059,-416.8472 -69.4746,-282.2404 -390.7943,-798.9572 -686.0611,-1111.5927 -151.9755,-160.6598 -334.3462,-442.9002 -334.3462,-516.7169 0,-21.7108 -4.3422,-30.3951 -13.0265,-30.3951 z m 2631.34818,65.1324 c 4.34216,4.3422 4.34216,34.7373 0,73.8167 -17.36863,117.2383 -30.39511,130.2648 -21.71079,26.053 4.34216,-47.7638 13.02647,-91.1854 21.71079,-95.5275 0,-4.3422 0,-4.3422 0,-4.3422 z m -4363.86948,26.053 c -4.3422,-4.3422 -4.3422,-4.3422 -8.6843,0 -13.0265,0 -26.053,26.0529 -60.7902,86.8431 -30.3952,56.4481 -104.2118,138.9491 -191.055,225.7923 -160.6599,156.3177 -260.5295,282.2403 -460.2688,573.1649 -277.8982,408.163 -312.6355,468.9532 -369.0835,629.613 -69.4746,191.055 -86.8432,386.4522 -39.0795,442.9002 8.6844,13.0265 17.3687,21.7108 21.7108,21.7108 0,0 13.0265,-52.1059 21.7108,-117.2383 8.6843,-65.1323 34.7373,-169.3441 60.7902,-230.1344 43.4216,-121.5804 182.3707,-347.3727 316.9776,-516.7169 47.7638,-56.448 130.2648,-186.7128 186.7129,-277.8981 104.2118,-182.3707 230.1344,-356.057 282.2403,-403.8208 21.7108,-21.7108 30.3951,-21.7108 34.7372,-4.3421 4.3422,8.6843 17.3687,43.4216 26.053,73.8167 30.3951,104.2118 86.8432,199.7393 156.3177,269.2138 60.7902,60.7902 117.2383,91.1853 112.8961,60.7902 0,-8.6843 -17.3686,-43.4216 -39.0794,-82.501 -138.9491,-234.4766 -147.6334,-290.9246 -65.1324,-503.6904 52.1059,-138.9491 60.7902,-208.4236 30.3951,-234.4766 -8.6843,-8.6843 -13.0264,-13.0264 -17.3686,-13.0264 z m -3035.1689,0 c 17.3686,0 39.0794,30.3951 78.1588,108.5539 26.053,52.1059 65.1324,117.2383 82.501,143.2913 21.7108,26.0529 34.7373,47.7637 30.3952,52.1059 0,4.3421 -21.7108,8.6843 -43.4216,13.0264 -34.7373,8.6844 -39.0795,4.3422 -69.4746,-52.1059 -43.4216,-86.8431 -99.8696,-251.8452 -86.8431,-260.5295 4.3421,-4.3421 4.3421,-4.3421 8.6843,-4.3421 z m 7368.64327,178.0285 c 0,4.3421 0,13.0264 0,26.0529 0,21.7108 -8.68432,60.7902 -17.36864,86.8432 -26.05295,56.4481 -30.39511,17.3686 -4.34215,-65.1324 8.68431,-30.3951 17.36863,-43.4216 17.36863,-47.7637 0,0 4.34216,0 4.34216,0 z m 299.60895,299.6089 c 4.34216,0 4.34216,0 4.34216,8.6843 0,8.6844 -56.44807,112.8962 -125.9226,234.4766 -69.47454,117.2383 -147.6334,256.1874 -169.34419,303.9511 -21.7108,47.7638 -52.10591,104.2118 -69.47454,117.2383 -39.07943,39.0794 -78.15886,47.7637 -121.580446,30.3951 -34.737269,-13.0265 -34.737269,-17.3686 -26.052952,-117.2383 17.368635,-182.3706 43.421588,-225.7922 130.264758,-204.0814 30.39511,8.6843 39.07943,0 60.79022,-39.0795 56.44807,-108.5539 212.76578,-286.5824 290.92464,-325.6619 13.02647,-8.6843 17.36863,-8.6843 26.05295,-8.6843 z m -6057.31142,473.2953 c -13.0264,-4.3421 -34.7372,43.4216 -69.4745,182.3707 -56.4481,212.7658 -73.8167,347.3727 -73.8167,603.56 0,251.8452 30.3951,425.53159 117.2383,716.45622 43.4216,156.31772 186.7128,438.55803 277.8982,564.48063 73.8166,99.869653 91.1853,112.896129 134.6069,82.501018 21.7108,-17.368635 21.7108,-26.052952 -8.6843,-112.896128 -17.3687,-52.1059 -65.1324,-143.29123 -108.554,-204.08146 -99.8697,-147.63339 -264.8717,-477.63745 -295.2668,-581.84926 -30.3951,-117.23832 -30.3951,-117.23832 -30.3951,-486.32182 0,-299.6089 4.3421,-356.057 39.0794,-542.7698 21.7108,-117.2383 30.3951,-212.7658 26.053,-217.1079 -4.3422,-4.3422 -4.3422,-4.3422 -8.6844,-4.3422 z m -486.3217,65.1324 c 0,0 -4.3422,4.3422 -13.0265,8.6843 -26.053,26.053 73.8167,382.11 143.2912,516.7169 39.0795,73.8167 34.7373,8.6843 -4.3421,-121.5804 -21.7108,-69.4746 -56.4481,-186.7129 -73.8167,-260.5296 -34.7373,-117.2383 -39.0794,-143.2912 -52.1059,-143.2912 z m 2509.7677,186.7128 c -26.053,0 -56.4481,343.0306 -39.0794,412.5051 l 8.6843,39.0794 17.3686,-34.7372 c 17.3687,-52.1059 34.7373,-416.8473 13.0265,-416.8473 z m -1211.4623,577.5071 c -17.3686,0 -108.5539,108.554 -134.6069,151.9756 -17.3686,34.7373 -108.554,334.3462 -108.554,356.05699 0,21.7108 34.7373,-4.34216 160.6599,-130.26476 l 138.9491,-138.94903 69.4745,26.0529 c 56.4481,21.7108 138.9491,26.053 529.7434,34.7373 373.4256,8.6843 468.9531,13.0265 516.7169,30.3951 117.2383,47.76373 251.8452,56.44805 390.7943,34.73726 178.0285,-34.73726 551.4541,-34.73726 694.7453,0 160.6599,34.73727 343.0306,30.39511 455.9267,-13.02646 82.501,-34.7373 91.1853,-34.7373 134.6069,-17.3687 30.3951,13.0265 82.501,52.10595 121.5805,95.52754 39.0794,39.07943 78.1588,73.81669 86.8431,73.81669 26.053,0 34.7373,-30.39511 17.3687,-69.47453 -4.3422,-21.7108 -13.0265,-60.79023 -17.3687,-95.5275 -8.6843,-56.4481 -117.2382,-269.2138 -143.2912,-277.8982 -8.6843,0 -34.7373,34.7373 -56.4481,82.5011 -82.501,165.002 -156.3177,169.3442 -512.3747,52.1059 -403.8207,-138.9491 -425.5315,-143.2913 -555.7963,-138.9491 -95.5275,8.6843 -134.6069,17.3686 -225.7922,60.7902 -60.7903,30.3951 -121.5805,52.1059 -134.607,52.1059 -8.6843,0 -95.5275,-34.7373 -186.7128,-82.501 -165.002,-78.1589 -173.6863,-82.501 -286.5825,-82.501 -86.8431,0 -143.2912,13.0265 -251.8452,47.7637 -143.2912,47.7638 -212.7657,65.1324 -390.7943,99.8697 -143.2912,21.7108 -191.0549,8.6843 -256.1873,-86.8432 -26.053,-39.0794 -52.1059,-65.1324 -56.4481,-65.1324 z m 334.3462,495.00612 c -4.3421,0 -4.3421,0 -4.3421,4.34216 0,21.71079 69.4745,104.2118 112.8961,134.60692 21.7108,17.36863 82.501,78.15885 125.9226,130.26476 86.8432,95.52749 256.1874,238.81872 325.6619,277.89815 52.1059,26.05295 52.1059,47.76375 4.3422,65.13238 -43.4216,13.02648 -247.5031,151.975557 -260.5296,173.68635 -13.0264,21.710793 26.053,13.026476 173.6864,-30.39511 221.4501,-65.13238 421.1894,-82.50102 781.5886,-60.79022 234.4765,13.02647 325.6619,21.71079 390.7942,43.42158 95.5275,34.737274 143.2913,39.079433 143.2913,13.02648 0,-34.73727 -47.7638,-112.89613 -82.501,-134.60692 l -34.7373,-21.71079 43.4216,-26.05295 c 56.448,-39.07943 264.8717,-234.47657 377.7678,-351.71486 138.9491,-151.97555 108.554,-156.31771 -238.8187,-34.73727 -204.0815,73.8167 -334.3463,91.18533 -481.9797,69.47454 -65.1323,-8.68432 -221.45,-17.36863 -356.057,-17.36863 -286.5824,0 -538.4276,-34.73727 -725.1405,-95.52749 -69.4745,-26.05296 -134.6069,-39.07943 -147.6334,-39.07943 -8.6843,4.34216 -47.7637,-17.36864 -82.501,-52.10591 -30.3951,-21.71079 -52.1059,-39.07943 -60.7902,-43.42158 -4.3422,-4.34216 -4.3422,-4.34216 -4.3422,-4.34216 z m -1867.1282,560.13847 c 4.3422,-4.34216 30.3951,26.05295 60.7902,73.8167 30.3951,43.42158 299.609,325.661898 642.6395,655.66596 321.3198,321.31974 703.4297,707.77185 842.3788,868.43175 408.1629,455.9266 733.8248,755.5356 1046.4602,963.9592 34.7373,21.7108 65.1324,43.4216 65.1324,52.1059 0,4.3422 -17.3686,8.6843 -34.7372,8.6843 -373.4257,-21.7108 -590.5336,-52.1059 -820.668,-108.5539 -208.4237,-47.7638 -421.1894,-117.2383 -460.2689,-151.9756 -43.4215,-30.3951 -160.6598,-321.3197 -243.1608,-590.5336 -82.5011,-277.8981 -186.7129,-586.19139 -204.0815,-586.19139 -4.3422,0 -8.6843,34.73727 -4.3422,69.47454 26.053,178.02855 217.108,881.45825 273.556,985.67005 13.0265,30.3951 21.7108,60.7902 17.3687,65.1324 -21.7108,21.7107 -373.4257,-143.2913 -620.9287,-295.2668 -473.2953,-286.5825 -629.613,-438.5581 -690.4033,-660.0082 -30.3951,-108.55393 -21.7107,-151.97551 39.0795,-273.55596 30.3951,-65.13238 65.1324,-156.31771 73.8167,-199.7393 4.3421,-47.76374 13.0264,-260.52952 13.0264,-477.637452 -4.3421,-217.107938 0,-399.478598 4.3422,-399.478598 z m 5531.91018,416.84723 c 4.34215,0 8.68431,82.50102 8.68431,191.05498 0,108.55397 8.68432,316.97759 17.36864,464.61098 l 13.02647,264.87172 -60.79022,60.7902 c -225.79225,238.8187 -764.21988,594.8757 -1107.25048,729.4826 -73.8167,30.3952 -156.3177,56.4481 -182.3706,60.7903 l -47.7638,8.6843 30.3951,-34.7373 c 30.3951,-34.7373 247.5031,-382.1099 334.3462,-538.4277 95.5275,-160.6598 225.7923,-330.00402 403.8208,-516.71685 195.3971,-199.7393 360.39916,-390.79428 495.00608,-573.16494 47.76375,-60.79022 91.18534,-112.89613 95.5275,-117.23829 z M -6459.3255,322.27914 c 21.7108,0 30.3951,39.07943 30.3951,121.58044 0,91.18534 -21.7108,117.23829 -34.7373,39.07943 -13.0264,-78.15886 -8.6843,-160.65987 4.3422,-160.65987 z m -894.4847,1211.46226 c -138.9491,165.002 -191.055,438.558 -147.6334,772.9043 21.7108,151.9755 121.5805,651.3238 147.6334,738.1669 8.6843,34.7373 -13.0265,30.3951 -204.0814,-26.0529 -273.556,-86.8432 -273.556,-86.8432 -303.9512,-160.6599 -17.3686,-39.0794 -39.0794,-99.8696 -47.7637,-138.9491 -8.6843,-39.0794 -39.0794,-151.9755 -69.4745,-251.8452 -60.7903,-212.7657 -56.4481,-260.5295 21.7108,-438.558 112.8961,-238.8187 234.4765,-395.1364 364.7413,-460.2688 69.4745,-39.0794 204.0814,-82.501 247.503,-82.501 26.053,0 21.7108,4.3421 -8.6843,47.7637 z m -833.6945,603.5601 c 0,138.949 4.3422,160.6598 73.8167,377.7678 43.4216,125.9226 91.1854,260.5295 112.8962,295.2668 17.3686,34.7372 34.7372,65.1323 34.7372,69.4745 0,8.6843 -21.7108,0 -65.1323,-17.3686 -26.053,-13.0265 -143.2913,-52.1059 -264.8717,-95.5275 -125.9226,-39.0794 -234.4766,-73.8167 -243.1609,-82.501 -21.7108,-13.0265 -52.1059,-121.5805 -82.501,-295.2668 -21.7108,-130.2648 -21.7108,-130.2648 8.6843,-156.3177 30.3951,-26.053 403.8207,-243.1609 416.8472,-243.1609 4.3422,0 8.6843,69.4745 8.6843,147.6334 z m 9396.4314,-99.8697 c 8.6844,-4.3421 56.4481,34.7373 112.8962,86.8432 52.1059,47.7637 156.3177,125.9226 225.7922,165.002 69.4746,43.4216 138.9491,82.501 147.6334,86.8432 17.3687,13.0265 21.7108,21.7108 4.3422,43.4216 -8.6843,13.0265 -52.1059,82.501 -95.5275,156.3177 -121.5805,204.0815 -125.9226,208.4236 -356.057,303.9511 -238.8188,99.8697 -464.61101,178.0285 -825.01018,277.8982 -264.87168,69.4745 -330.004057,82.501 -321.31974,56.448 4.34216,-8.6843 156.31771,-165.002 338.68838,-347.3727 299.60895,-303.9511 521.05904,-547.112 694.74534,-751.1934 34.7373,-39.0795 69.4746,-78.1589 73.8167,-78.1589 z m -9995.6493,338.6884 c 8.6844,52.1059 30.3952,125.9226 43.4216,165.002 26.053,69.4746 21.7108,82.501 -30.3951,56.4481 -13.0265,-8.6843 -99.8696,-39.0794 -195.3971,-73.8167 -99.8697,-34.7373 -173.6864,-65.1324 -169.3442,-73.8167 13.0265,-17.3686 286.5825,-169.3442 308.2933,-169.3442 17.3686,0 30.3951,26.053 43.4215,95.5275 z m 10655.6575,-39.0794 c 13.0264,0 208.4236,169.3442 212.7657,186.7128 4.3422,4.3422 -8.6843,17.3686 -26.0529,21.7108 -17.3686,4.3421 -91.1853,39.0794 -165.002,73.8167 -225.7923,108.554 -334.3463,138.9491 -256.1874,73.8167 30.3951,-26.053 151.9756,-208.4236 191.055,-290.9246 17.3686,-34.7373 39.0794,-65.1324 43.4216,-65.1324 z m -11511.0627,959.617 h 1024.7494 c -138.949,-43.4215 -277.8981,-82.501 -399.4786,-121.5804 -251.8452,-78.1589 -442.9002,-138.9491 -625.2708,-199.7393 z"
     id="path3513"
     style="stroke-width:122.544" /></g>
</svg>
